<?xml version="1.0" standalone="no"?>
<!DOCTYPE svg PUBLIC "-//W3C//DTD SVG 20010904//EN"
 "http://www.w3.org/TR/2001/REC-SVG-20010904/DTD/svg10.dtd">
<svg version="1.0" xmlns="http://www.w3.org/2000/svg"
 width="16.000000pt" height="26.000000pt" viewBox="0 0 16.000000 26.000000"
 preserveAspectRatio="xMidYMid meet">

<g transform="translate(0.000000,26.000000) scale(0.100000,-0.100000)"
fill="currentColor" stroke="none">
<path d="M20 245 c-8 -10 -9 -15 -1 -15 6 0 11 -7 11 -15 0 -8 3 -15 8 -15 12
0 62 -50 62 -63 0 -7 -20 -35 -45 -64 -49 -56 -52 -63 -31 -63 8 0 39 28 70
62 l55 62 -39 45 c-62 75 -75 84 -90 66z"/>
</g>
</svg>
