<?xml version="1.0" standalone="no"?>
<!DOCTYPE svg PUBLIC "-//W3C//DTD SVG 20010904//EN"
 "http://www.w3.org/TR/2001/REC-SVG-20010904/DTD/svg10.dtd">
<svg version="1.0" xmlns="http://www.w3.org/2000/svg"
 width="51.000000pt" height="26.000000pt" viewBox="0 0 51.000000 26.000000"
 preserveAspectRatio="xMidYMid meet">

<g transform="translate(0.000000,26.000000) scale(0.100000,-0.100000)"
fill="#000000" stroke="none">
<path d="M47 202 c-31 -31 -42 -49 -32 -49 17 0 85 70 85 87 0 15 -2 14 -53
-38z"/>
<path d="M210 243 c-8 -2 -22 -7 -30 -10 -27 -11 -40 -11 -34 -2 3 5 -1 9 -9
9 -22 0 -122 -121 -110 -134 3 -3 0 -13 -8 -22 -11 -14 -11 -18 -1 -21 6 -3
10 -9 6 -14 -3 -5 -2 -13 1 -19 3 -5 17 2 31 18 l25 27 -17 -28 c-20 -33 -11
-46 18 -28 18 11 20 11 15 -3 -10 -26 3 -19 46 27 36 38 37 38 16 8 l-23 -34
22 5 c14 4 22 2 22 -7 0 -21 41 -6 79 29 30 27 32 28 18 6 -10 -15 -13 -30 -8
-39 6 -9 11 -10 15 -3 4 6 13 9 22 5 8 -3 24 3 36 13 12 11 18 13 14 7 -4 -7
-5 -13 -2 -13 3 0 21 24 41 52 19 29 35 48 35 43 0 -6 -7 -20 -15 -32 -8 -11
-19 -32 -24 -45 -8 -22 -7 -24 28 -25 51 -2 79 22 81 72 3 63 1 77 -11 70 -6
-4 -5 3 3 14 11 18 11 23 0 30 -8 4 -13 10 -12 12 1 2 -1 11 -5 19 -10 27 -55
18 -81 -15 -25 -31 -32 -28 -14 5 7 13 7 21 0 25 -5 3 -10 1 -10 -5 0 -6 -4
-9 -9 -6 -5 4 -23 -6 -40 -20 -17 -14 -31 -21 -31 -15 0 5 5 13 10 16 6 3 10
12 10 20 0 24 -46 10 -91 -28 -57 -49 -73 -47 -24 3 21 22 37 40 35 39 -3 0
-12 -3 -20 -6z m110 -137 c0 -2 -8 -10 -17 -17 -16 -13 -17 -12 -4 4 13 16 21
21 21 13z"/>
<path d="M23 225 c-9 -25 2 -27 22 -5 17 18 17 20 1 20 -9 0 -19 -7 -23 -15z"/>
</g>
</svg>
