<?xml version="1.0" standalone="no"?>
<!DOCTYPE svg PUBLIC "-//W3C//DTD SVG 20010904//EN"
 "http://www.w3.org/TR/2001/REC-SVG-20010904/DTD/svg10.dtd">
<svg version="1.0" xmlns="http://www.w3.org/2000/svg"
 width="51.000000pt" height="26.000000pt" viewBox="0 0 51.000000 26.000000"
 preserveAspectRatio="xMidYMid meet">

<g transform="translate(0.000000,26.000000) scale(0.100000,-0.100000)"
fill="currentColor" stroke="none">
<path d="M19 242 c-16 -11 -19 -27 -19 -107 0 -72 4 -97 16 -109 8 -9 20 -17
25 -17 5 -1 15 -2 22 -3 6 -1 20 5 30 13 16 13 17 13 12 -1 -7 -18 14 -19 36
-2 8 6 21 14 29 19 12 6 13 5 3 -6 -7 -7 -13 -15 -13 -19 0 -3 47 -6 105 -8
99 -3 106 -2 128 20 12 13 16 16 8 6 -19 -24 -14 -27 39 -19 57 8 69 30 69
133 0 65 -3 82 -19 98 -23 23 -46 26 -54 8 -5 -10 -7 -10 -12 0 -3 7 -25 12
-52 12 -42 0 -51 -5 -101 -52 -54 -52 -53 -43 1 17 l28 30 -36 3 c-31 3 -43
-3 -78 -35 -22 -21 -31 -27 -20 -13 41 49 41 50 -47 47 -47 -1 -89 -7 -100
-15z"/>
</g>
</svg>
