<?xml version="1.0" standalone="no"?>
<!DOCTYPE svg PUBLIC "-//W3C//DTD SVG 20010904//EN"
 "http://www.w3.org/TR/2001/REC-SVG-20010904/DTD/svg10.dtd">
<svg version="1.0" xmlns="http://www.w3.org/2000/svg"
 width="75.000000pt" height="26.000000pt" viewBox="0 0 75.000000 26.000000"
 preserveAspectRatio="xMidYMid meet">

<g transform="translate(0.000000,26.000000) scale(0.100000,-0.100000)"
fill="currentColor" stroke="none">
<path d="M55 252 c-50 -6 -55 -16 -55 -118 0 -83 2 -95 22 -114 27 -25 45 -25
71 -3 19 17 20 17 14 1 -8 -23 25 -25 43 -3 7 8 17 15 22 15 6 0 5 -7 -2 -16
-12 -13 -8 -15 31 -13 25 2 50 10 57 18 12 14 13 14 8 -2 -5 -16 0 -18 42 -16
28 2 52 9 60 18 12 14 13 14 8 -2 -5 -16 2 -18 82 -16 48 1 93 6 100 11 8 7
12 7 12 -1 0 -20 33 -12 64 17 l31 27 -24 -27 -24 -28 48 4 c26 3 54 11 62 18
14 15 24 129 15 186 -7 49 -43 63 -80 31 -15 -13 -21 -17 -14 -9 6 8 12 17 12
21 0 5 -75 8 -167 8 l-168 0 -55 -52 c-48 -46 -50 -47 -12 -7 23 25 42 48 42
51 0 3 -17 6 -37 7 -31 1 -45 -5 -78 -36 -28 -26 -32 -28 -12 -6 15 16 27 33
27 37 0 6 -88 5 -145 -1z m365 -22 c-6 -11 -16 -20 -22 -20 -6 0 -3 9 7 20 10
11 20 20 22 20 2 0 -1 -9 -7 -20z m-96 -155 c-14 -19 -31 -35 -37 -35 -6 0 4
16 23 35 19 19 36 35 37 35 2 0 -8 -16 -23 -35z m110 0 c-14 -19 -31 -35 -37
-35 -6 0 4 16 23 35 19 19 36 35 37 35 2 0 -8 -16 -23 -35z"/>
</g>
</svg>
