<?xml version="1.0" standalone="no"?>
<!DOCTYPE svg PUBLIC "-//W3C//DTD SVG 20010904//EN"
 "http://www.w3.org/TR/2001/REC-SVG-20010904/DTD/svg10.dtd">
<svg version="1.0" xmlns="http://www.w3.org/2000/svg"
 width="131.000000pt" height="51.000000pt" viewBox="0 0 131.000000 51.000000"
 preserveAspectRatio="xMidYMid meet">

<g transform="translate(0.000000,51.000000) scale(0.100000,-0.100000)"
fill="currentColor" stroke="none">
<path d="M90 496 c-6 -8 -17 -13 -25 -10 -14 6 -58 -44 -50 -56 3 -5 1 -11 -5
-15 -14 -8 -13 -45 1 -45 7 0 8 -7 3 -17 -14 -30 -13 -234 1 -223 8 7 10 1 7
-21 -5 -36 16 -82 35 -75 7 3 13 -1 13 -8 0 -21 23 -26 117 -26 83 0 86 1 131
38 26 20 52 44 59 52 7 8 13 11 13 6 0 -4 -14 -25 -30 -46 -17 -21 -30 -40
-30 -43 0 -3 134 -5 298 -5 l299 0 17 26 17 27 -5 -26 -6 -26 106 0 c57 0 107
4 110 9 3 4 10 8 15 8 6 0 7 -5 4 -10 -4 -7 3 -8 22 -4 82 20 96 46 94 184 -1
78 -1 79 5 144 5 47 3 57 -8 50 -11 -6 -11 -5 0 9 11 13 11 21 0 44 -18 37
-77 77 -94 63 -8 -8 -14 -7 -17 2 -4 9 -9 7 -18 -7 -17 -27 -71 -77 -76 -71
-3 3 4 17 14 33 11 15 23 33 26 39 10 17 -224 18 -235 1 -6 -9 -10 -9 -16 1
-6 9 -38 12 -118 10 l-109 -2 -100 -96 c-55 -53 -111 -105 -125 -115 -23 -19
73 88 147 163 49 49 45 60 -15 43 -20 -6 -30 -6 -27 0 4 5 -14 8 -42 6 -46 -3
-52 -7 -142 -97 -86 -86 -91 -88 -16 -5 15 17 41 47 58 69 l31 39 -52 -6 c-28
-3 -56 -8 -62 -12 -5 -3 -10 -1 -10 5 0 15 -122 10 -132 -5 -11 -15 -60 -14
-54 2 7 17 -9 17 -24 -1z m752 -33 c-23 -32 -70 -76 -57 -53 17 29 68 90 73
86 2 -3 -5 -17 -16 -33z m-512 3 c0 -2 -8 -10 -17 -17 -16 -13 -17 -12 -4 4
13 16 21 21 21 13z m338 -298 c-73 -79 -142 -147 -153 -151 -11 -4 47 60 130
143 82 82 151 150 153 150 2 0 -56 -64 -130 -142z m-505 97 c-15 -19 -29 -32
-32 -29 -4 4 48 64 56 64 2 0 -9 -16 -24 -35z m-58 -65 c-10 -11 -20 -18 -23
-15 -7 6 18 35 31 35 5 0 2 -9 -8 -20z m976 -88 c-12 -22 -41 -48 -41 -36 0 8
40 54 47 54 2 0 -1 -8 -6 -18z m29 -49 c-35 -40 -60 -59 -60 -46 0 10 83 94
88 88 3 -2 -10 -21 -28 -42z m-881 -20 c-17 -22 -31 -33 -43 -33 -5 0 1 11 14
25 27 28 50 34 29 8z m482 -16 c-10 -9 -11 -8 -5 6 3 10 9 15 12 12 3 -3 0
-11 -7 -18z"/>
</g>
</svg>
