<?xml version="1.0" standalone="no"?>
<!DOCTYPE svg PUBLIC "-//W3C//DTD SVG 20010904//EN" "http://www.w3.org/TR/2001/REC-SVG-20010904/DTD/svg10.dtd">
<svg width="151" height="242" viewBox="0 0 151 242" fill="none" xmlns="http://www.w3.org/2000/svg">
<path d="M105.16 135.878C100.536 135.878 95.9405 138.194 89.3848 141.862C86.5656 143.439 81.7692 150.293 81.7692 150.293L86.121 164.98C86.121 164.98 98.6852 168.635 105.16 164.98C110.73 161.836 114.313 158.625 118.215 153.557C123.135 147.167 127.463 133.702 127.463 133.702C127.463 133.702 114.082 135.878 105.16 135.878Z" fill="#2F640A"/>
<path d="M105.16 132.886C100.536 132.886 95.9405 135.202 89.3848 138.87C86.5656 140.447 81.7692 147.301 81.7692 147.301L86.121 161.989C86.121 161.989 98.6852 165.644 105.16 161.989C110.73 158.844 114.313 155.633 118.215 150.565C123.135 144.175 128.007 132.886 128.007 132.886H105.16Z" fill="#2C7F00"/>
<path d="M118.995 143.943C116.896 146.583 115.44 146.648 114.255 145.869C113.022 145.059 115.493 141.832 117.771 139.162C119.952 136.606 121.346 135.05 122.333 136.06C123.278 137.028 120.997 141.424 118.995 143.943Z" fill="#349400"/>
<path d="M83.1141 151.306C83.1771 150.993 83.5046 150.838 83.8158 150.797C83.9129 150.783 84.1107 151.001 84.1875 151C84.336 151.001 84.287 150.839 84.45 150.858C84.5052 150.865 84.8276 151.198 84.8773 151.198C85.145 151.202 85.1659 151.002 85.3539 150.94C86.2808 150.639 86.96 150.19 87.7034 149.766C87.9488 149.626 88.4745 149.707 88.5574 149.384C88.567 149.345 88.2794 149.059 88.2615 149.03C88.2487 149.009 88.2378 148.991 88.2284 148.974C88.0418 148.641 88.524 149.213 88.6399 149.248C89.1208 149.392 89.3502 149.241 89.4265 148.969C89.4585 148.852 88.8577 148.307 89.2285 148.584C89.2536 148.603 89.515 148.946 89.5654 148.963C89.6787 149.002 89.7187 148.867 89.7757 148.863C89.8883 148.856 89.8992 148.841 89.966 148.791C90.0619 148.723 90.304 148.799 90.3371 148.643C90.3426 148.61 90.0318 148.295 90.0151 148.211C89.9983 148.127 90.1078 148.083 90.2041 148.138C90.2992 148.194 90.5107 148.469 90.5669 148.526C91.0398 149.005 90.5395 148.211 90.5377 148.183C90.5138 147.691 91.0481 147.933 91.2602 147.751C91.4197 147.613 91.4804 147.332 91.6453 147.223C91.8477 147.09 92.1557 147.141 92.3039 146.96C92.32 146.941 91.9597 146.566 91.9788 146.542C92.1774 146.292 92.4536 146.127 92.9195 146.186C92.9667 146.192 93.2354 146.562 93.3005 146.588C93.6956 146.741 94.5193 147.214 93.2966 145.648C93.4438 145.622 93.6203 145.573 93.9711 145.797C94.1977 145.94 94.4717 146.36 94.4009 146.14C94.3854 146.091 94.0769 145.783 94.0753 145.734C94.0693 145.527 94.2729 145.535 94.2203 145.281C94.2091 145.229 93.9448 144.943 93.9038 144.885C93.5733 144.419 94.2774 145.049 94.3405 145.084C94.8097 145.347 94.7706 145.114 94.9034 145.011C94.9343 144.988 94.5511 144.629 94.5681 144.593C94.6551 144.414 94.8358 144.312 95.1268 144.362C95.1926 144.374 95.4632 144.73 95.5099 144.752C95.7126 144.847 95.1628 144.21 95.3468 144.289C95.385 144.304 95.6334 144.594 95.6639 144.623C96.1427 145.077 95.5505 144.356 95.5464 144.332C95.4801 144.013 96.2078 144.666 96.2342 144.456C96.2366 144.43 95.8801 144.102 95.9066 144.051C96.0791 143.714 96.4449 143.559 96.9652 143.606C97.0461 143.612 97.2623 143.906 97.2951 143.936C97.8094 144.412 97.2037 143.698 97.1932 143.66C97.1908 143.65 97.1894 143.641 97.1887 143.632C97.1828 143.397 97.7416 143.826 97.1125 142.948C97.8681 142.801 98.0453 141.881 99.15 142.337C99.1632 142.342 99.4104 142.731 99.4353 142.74C99.7374 142.848 99.305 142.276 98.9355 141.471C98.8444 141.267 99.5063 142.098 99.5543 142.16C99.7355 142.383 100.08 142.976 100.119 143.017C100.422 143.338 99.1876 141.437 99.2928 141.369C99.298 141.37 99.5073 141.732 99.5381 141.761C99.634 141.855 99.572 141.698 99.674 141.804C99.91 142.048 100.507 142.974 100.258 142.374C100.226 142.297 99.5372 141.21 99.6619 141.206C99.7117 141.205 99.865 141.088 99.9528 141.133C100.041 141.178 100.219 141.554 100.232 141.567C100.628 141.97 100.697 142.193 101.161 142.861C101.621 143.529 100.643 141.868 100.561 141.667C100.479 141.467 100.791 141.809 100.889 141.934C100.988 142.059 101.091 142.303 101.153 142.37C101.561 142.808 100.739 141.506 100.631 141.215C100.38 140.525 101.153 141.732 101.306 141.808C101.349 141.828 101.173 141.553 101.18 141.514C101.212 141.365 101.474 141.73 101.38 141.317C101.364 141.25 101.044 140.447 101.39 140.978C101.44 141.054 101.585 141.38 101.658 141.432C101.769 141.509 101.903 141.528 101.907 141.391C101.91 141.29 101.592 140.794 101.731 140.928C101.792 140.988 101.904 141.317 102.006 141.404C102.108 141.491 102.218 141.419 102.256 141.386C102.295 141.353 102.07 140.967 102.06 140.939C102.004 140.774 101.994 140.539 102.002 140.536C102.366 140.293 103.045 140.799 103.308 140.4C103.329 140.369 103.109 139.953 103.11 139.944C103.127 139.719 103.581 140.885 103.829 141.23C103.412 140.373 103.526 140.51 103.552 140.382C103.564 140.32 103.389 139.995 103.376 139.959C103.188 139.428 103.531 140.067 103.603 140.197C103.867 140.674 103.63 140.075 103.807 140.394C103.983 140.711 104.158 141.22 104.222 141.183C104.096 140.865 103.669 140.081 103.659 139.926C103.623 139.339 104.277 139.808 104.463 139.802C104.647 139.797 104.671 139.717 104.813 139.787C105.067 139.916 104.732 139.342 104.707 139.02C104.682 138.699 105.312 140.2 105.472 140.512C105.632 140.823 105.498 140.488 105.596 140.655C105.693 140.822 105.754 141.055 105.826 141.102C105.897 141.149 105.751 140.531 105.614 140.192C105.322 139.473 104.931 138.757 105.161 138.966C105.162 138.967 105.162 138.968 105.163 138.97L105.213 138.948C105.219 138.958 105.23 138.987 105.246 139.026L105.199 139.046C105.238 139.136 105.299 139.28 105.34 139.356L105.376 139.34C105.389 139.367 105.4 139.386 105.408 139.391C105.732 139.614 105.945 139.549 106.252 139.74C106.294 139.767 106.448 140.218 106.474 140.239C106.75 140.456 106.393 139.734 106.154 138.87C106.573 139.98 106.891 140.635 107.017 140.592C107.093 140.567 106.889 140.09 106.803 139.732C106.777 139.623 106.961 139.934 106.881 139.703C106.621 138.949 106.244 138.139 106.505 138.418C106.516 138.432 106.658 138.845 106.687 138.862C106.876 138.973 106.589 138.191 106.691 138.043C106.771 137.927 107.147 138.326 107.299 138.356C107.775 139.603 107.78 139.273 107.499 138.396C107.592 138.401 107.66 138.32 107.782 138.409C107.824 138.439 107.944 138.807 107.962 138.845C108.245 139.438 107.962 138.588 107.967 138.549C108.034 138.159 108.424 138.737 108.37 138.049C108.368 138.025 108.053 137.153 108.338 137.769C108.357 137.811 108.446 138.228 108.541 138.227C108.637 138.227 108.967 138.634 108.935 138.188C108.927 138.081 108.738 137.348 108.999 137.879C109.034 137.951 109.117 138.203 109.18 138.338C109.378 138.767 109.074 137.881 109.39 138.612C109.706 139.344 109.998 139.872 109.925 139.314C109.923 139.298 109.696 138.59 109.737 138.588C109.803 138.584 109.938 138.7 109.998 138.673C110.027 138.659 109.851 138.233 109.853 138.223C109.963 137.909 110.244 138.244 110.516 138.336C110.565 138.354 110.468 137.721 110.709 138.163C110.974 138.646 111.649 140.808 111.655 140.234C111.657 140.004 110.799 137.262 111.431 138.617C111.576 138.175 112.072 138.809 112.168 138.22C112.172 138.194 111.952 137.422 111.983 137.423C112.033 137.425 112.176 137.772 112.214 137.785C112.315 137.826 112.361 137.704 112.412 137.612C112.444 137.556 112.479 137.51 112.529 137.513C112.581 137.515 112.687 137.888 112.749 137.89C112.81 137.893 112.689 137.396 112.84 137.605C112.953 137.766 113.333 138.739 113.441 138.832C113.131 137.851 113.187 137.855 113.198 137.567C113.2 137.512 113.073 137.176 113.068 137.132C113.048 136.945 113.167 137.219 113.141 137.017C113.135 136.968 113.03 136.633 113.019 136.574C112.921 136.063 113.249 136.788 113.304 136.916C113.519 137.396 113.41 136.951 113.518 137.134C113.624 137.316 113.63 137.583 113.719 137.686C113.904 137.9 114.027 137.804 114.144 137.786C114.191 137.777 114.026 137.337 114.03 137.325C114.087 137.184 114.329 137.632 114.103 136.724C114.883 139.009 114.09 136.484 114.357 136.904C114.378 136.938 114.762 138.014 114.767 138.189C114.772 138.364 114.595 138.046 114.613 138.313C114.618 138.376 114.847 139.425 114.854 139.49C114.91 140.002 114.412 138.371 114.38 138.283C114.041 137.329 114.279 138.46 114.277 138.544C114.272 138.926 114.112 138.724 114.098 139C114.087 139.179 114.411 140.249 114.356 140.23C114.178 140.166 113.657 138.696 113.923 140.029C113.981 140.314 114.383 141.467 113.984 140.587C113.96 140.531 113.61 139.72 113.735 140.264C113.751 140.332 113.861 140.671 113.863 140.702C113.874 140.902 113.749 140.644 113.738 140.791C113.726 140.938 113.723 141.152 113.623 141.058C113.596 141.033 113.531 140.901 113.46 140.749C113.371 140.554 113.272 140.325 113.232 140.242C113.032 139.816 113.218 140.562 113.005 140.036C112.79 139.508 112.579 138.667 112.372 138.349C112.666 139.226 112.963 140.127 113.257 141.009C113.06 141.042 112.776 140.823 112.598 140.928C112.577 140.942 112.764 141.403 112.745 141.43C112.666 141.541 112.455 141.24 112.391 141.412C112.342 141.547 112.424 142.076 112.379 142.233C111.972 141.254 111.957 141.641 111.829 141.584C111.784 141.565 111.691 141.298 111.635 141.22C111.429 140.931 111.787 141.796 111.812 141.944C111.918 142.573 111.192 140.585 111.083 140.68C111.077 140.684 111.378 141.775 111.391 141.845C111.475 142.302 111.245 141.48 111.172 141.418C111.039 141.304 110.889 141.072 110.906 141.417C110.912 141.519 111.086 142.204 110.845 141.713C110.813 141.649 110.689 141.297 110.676 141.279C110.446 140.975 110.846 142.076 110.924 142.471C111.001 142.865 110.631 142.139 110.532 141.927C110.274 141.38 110.48 141.672 110.462 141.615C110.25 140.943 110.225 141.081 110.153 141.045C109.748 139.969 109.699 140.061 110.08 141.011C110.121 141.114 110.124 140.999 110.153 141.045C110.497 142.119 110.47 142.283 110.017 141.327C109.805 140.88 109.643 140.326 109.592 140.569C109.568 140.679 109.866 141.413 109.892 141.633C109.95 142.136 109.546 141.5 109.47 141.653C109.442 141.708 109.636 142.098 109.622 142.15C109.587 142.289 109.405 142.01 109.388 142.195C109.386 142.212 109.564 142.629 109.542 142.644C109.381 142.761 109.121 142.549 108.931 142.614C108.839 142.645 108.768 142.94 108.656 142.93C108.465 142.914 108.025 142.378 107.946 142.581C107.894 142.712 108.08 143.126 108.156 143.428C108.303 144.014 107.778 143.069 107.698 142.922C107.695 142.917 107.733 142.787 107.606 142.587C107.402 142.146 107.698 142.919 107.698 142.922C107.646 142.827 107.456 142.792 107.458 142.885C107.459 142.936 107.629 143.33 107.626 143.349C107.578 143.715 107.459 143.903 107.262 143.894L107.396 143.836C107.354 143.837 107.309 143.83 107.261 143.816C107.253 143.81 107.059 143.371 107.044 143.362C106.832 143.224 107 143.794 107.044 144.157C107.089 144.521 106.963 144.45 106.558 143.728C106.525 143.858 106.266 143.576 106.111 143.403C105.956 143.231 106.339 144.084 106.341 144.104C106.42 144.719 106.098 144.278 105.89 144.283C105.789 144.284 105.684 144.483 105.639 144.617C105.604 144.725 105.469 144.546 105.465 144.703C105.465 144.724 105.651 145.096 105.655 145.112C105.798 145.596 105.397 144.659 105.304 144.502C104.968 143.93 104.783 143.628 104.825 143.952C104.834 144.026 105.406 145.378 105.405 145.473C105.404 145.595 105.195 145.112 105.199 145.251C105.199 145.263 105.34 145.554 105.303 145.557C105.132 145.57 104.894 145.476 104.761 145.578C104.742 145.591 104.995 146.039 104.973 146.065C104.866 146.186 104.715 146.24 104.479 146.091C104.42 146.052 104.276 145.722 104.22 145.63C103.883 145.076 104.253 145.942 104.252 145.963C104.232 146.482 103.661 145.822 103.632 146.3C103.63 146.328 104.031 147.258 103.57 146.526C103.539 146.477 103.064 145.73 103.326 146.276C103.343 146.31 103.591 146.692 103.526 146.676C103.46 146.66 103.546 146.961 103.237 146.563C103.14 146.437 102.648 145.703 102.951 146.341C102.97 146.387 103.707 147.798 103.113 146.875C103.016 146.723 102.419 145.728 102.663 146.276C102.711 146.382 102.868 146.589 102.921 146.746C103.004 146.987 102.776 146.763 102.996 147.236C103.034 147.32 103.418 148.009 103.064 147.526C103.008 147.45 102.809 147.118 102.768 147.092C102.571 146.972 102.629 147.244 102.397 147.077C102.315 147.019 101.979 146.491 101.852 146.374C101.725 146.258 101.566 146.171 101.697 146.429C101.829 146.686 102.438 147.478 102.439 147.575C102.453 147.991 101.929 147.654 101.691 147.737C101.657 147.749 101.905 148.007 101.872 148.043C101.786 148.138 101.761 148.382 101.544 148.369C101.419 148.392 101.26 148.362 101.05 148.243C100.496 147.926 100.363 147.42 100.087 147.338C99.9547 147.299 100.682 148.206 100.694 148.244C100.819 148.633 100.383 148.335 100.378 148.553C100.377 148.598 100.716 148.925 100.712 148.96C100.7 149.081 100.486 148.992 100.447 149.08C100.43 149.12 100.677 149.381 100.631 149.385C100.525 149.398 100.366 149.337 100.079 149.144C100.052 149.126 99.7901 148.761 99.7323 148.791C99.639 148.841 99.318 148.683 99.4603 149.017C99.5034 149.117 100.052 149.728 99.6165 149.357C99.5254 149.28 98.88 148.534 99.3858 149.225C99.4697 149.34 100.125 150.296 99.5754 149.794C99.4306 149.663 98.8548 149.095 98.9081 149.218C98.9174 149.237 99.2291 149.55 99.2318 149.605C99.2377 149.793 99.1055 149.848 99.1025 150.036C99.1021 150.087 99.4443 150.394 99.4341 150.459C99.4078 150.637 99.1966 150.67 98.9991 150.654C98.9258 150.648 98.7007 150.342 98.6706 150.314C98.182 149.853 98.7562 150.551 98.7766 150.603C98.8955 150.919 98.5409 150.667 98.5316 150.825C98.5282 150.868 98.83 151.176 98.8508 151.208C99.0513 151.532 98.5747 150.921 98.488 150.884C98.2457 150.776 98.1681 150.891 98.1192 151.007C98.1013 151.05 98.4667 151.394 98.4468 151.429C98.3342 151.642 98.1277 151.76 97.7771 151.7C97.7111 151.688 97.4781 151.381 97.4138 151.321C96.9652 150.897 97.4509 151.585 97.4883 151.658C97.6591 151.993 97.4073 151.761 97.388 151.862C97.297 152.359 96.7788 152.508 96.4061 152.643C95.9205 152.823 95.3981 152.785 95.1131 153.15C95.095 153.172 95.4466 153.545 95.4352 153.57C95.269 153.871 94.9015 153.919 94.7627 154.23C94.7505 154.255 95.0916 154.601 95.0827 154.654C95.0668 154.764 94.9727 154.809 94.8104 154.744C94.7321 154.713 94.5024 154.362 94.4291 154.337C94.2578 154.278 94.1605 154.316 94.1411 154.435C94.1337 154.486 94.5019 154.824 94.4676 154.861C94.312 155.04 94.1857 155.219 93.9176 155.219C93.789 155.225 93.6276 155.198 93.4159 155.121C93.3696 155.104 92.6661 154.382 92.7618 154.557C92.9506 154.764 93.176 155.003 93.3796 155.222C93.1459 155.663 92.5639 155.747 92.1877 156.061C92.1721 156.074 92.5814 156.419 92.5536 156.446C92.3922 156.603 92.3552 156.859 91.8101 156.669C91.7565 156.651 91.0697 156.009 91.1284 156.156C91.1389 156.183 91.1639 156.343 91.2981 156.499C91.3187 156.522 91.6576 156.801 91.6458 156.833C91.5717 157.016 91.374 157.091 91.057 157.051C91.0053 157.044 90.6671 156.721 90.6269 156.713C90.3418 156.668 90.5225 157.008 90.1214 156.834C89.8499 156.718 89.2268 156.204 88.5628 155.765C88.4684 155.704 88.4222 155.737 88.0464 155.468C87.1002 154.792 86.0974 154.007 85.0874 153.289C84.8694 153.134 85.0159 153.423 84.5439 152.975C84.5122 152.945 84.4061 152.727 84.2455 152.577C84.1355 152.471 83.7375 152.218 83.6063 152.07C83.4767 151.921 83.8161 152.125 83.6727 151.938C83.5283 151.748 83.0874 151.443 83.1141 151.306ZM105.417 142.634C105.17 142.254 105.853 143.75 105.75 143.364C105.744 143.344 105.429 142.653 105.417 142.634ZM112.372 139.65C112.057 138.991 112.353 140.018 112.591 140.529C112.827 141.039 112.467 139.85 112.372 139.65ZM113.007 138.876C112.737 138.363 113.46 140.581 113.404 140.103C113.401 140.075 113.023 138.906 113.007 138.876ZM88.533 155.434C88.5152 155.422 88.4699 155.445 88.4863 155.459C88.8819 155.801 88.9692 155.758 88.533 155.434ZM113.636 138.069C113.515 137.776 113.539 138.15 113.691 138.514C113.814 138.806 113.787 138.433 113.636 138.069ZM101.693 142.512C101.68 142.491 101.637 142.489 101.704 142.61C101.921 143.001 101.904 142.866 101.693 142.512ZM115.092 137.556C114.794 137.593 114.054 135.806 114.271 135.954C114.317 135.978 114.443 136.548 114.548 136.693C114.763 136.946 114.303 135.826 114.657 136.374C114.73 136.471 115.117 137.555 115.093 137.559C115.092 137.558 115.092 137.557 115.092 137.556ZM104.553 140.857C104.543 140.838 104.487 140.841 104.495 140.861C104.69 141.346 104.801 141.341 104.553 140.857ZM99.284 142.791C99.2552 142.754 99.1271 142.791 99.1484 142.828C99.5889 143.562 99.8379 143.498 99.284 142.791ZM107.314 138.389C107.179 137.878 107.221 137.796 107.499 138.396C107.433 138.383 107.378 138.399 107.314 138.389Z" fill="#2F640A"/>
<path d="M80.5909 176.014C75.727 153.902 73.7847 118.208 73.7847 118.208L79.4571 117.54C79.4571 117.54 80.5948 153.274 87.8721 173.513C99.6809 206.354 114.441 228.581 121.083 233.824C127.725 239.066 113.762 237.561 113.762 237.561C113.762 237.561 107.867 235.38 102.194 227.695C97.9407 221.934 92.1658 209.979 92.1658 209.979C92.1658 209.979 85.0139 196.121 80.5909 176.014Z" fill="#2F640A"/>
<path d="M64.6413 93.2552C43.8864 88.0085 22.4767 68.426 22.4767 68.426C22.4767 68.426 32.6268 95.1429 36.6199 99.9761C44.8985 109.997 52.6472 115.074 66.5381 117.655C80.8906 120.322 88.8337 120.532 101.761 113.824C110.6 109.237 123.927 91.0007 123.927 91.0007C123.927 91.0007 87.0761 98.9264 64.6413 93.2552Z" fill="#3E970B"/>
<path d="M65.4502 90.7286C44.312 85.3172 20.8448 66.5221 20.8448 66.5221C20.8448 66.5221 33.3691 94.4471 37.4358 99.4321C45.8673 109.768 52.9346 113.905 67.0821 116.567C81.6997 119.317 90.0894 118.863 103.256 111.943C105.16 110.943 125.831 89.3687 125.831 89.3687C125.831 89.3687 88.2994 96.5781 65.4502 90.7286Z" fill="#1F5F00"/>
<path d="M132.63 55.2347C132.63 80.5456 109.739 98.6162 79.3214 98.6162C48.9033 98.6162 24.3806 80.5456 24.3806 55.2347C24.3806 29.9239 47.1354 9.40538 77.5535 9.40538C107.972 9.40538 132.63 29.9239 132.63 55.2347Z" fill="#AE262D"/>
<path d="M24.721 12.1764C32.5519 9.94717 45.3918 14.8963 45.3918 14.8963C45.3918 14.8963 28.5124 32.3616 29.6167 45.9024C30.3506 54.901 39.4081 66.8452 39.4081 66.8452C39.4081 66.8452 22.9158 64.2405 15.6771 56.1866C9.90143 49.7606 5.14277 44.7343 5.68208 36.111C6.42757 24.1907 13.2338 15.4465 24.721 12.1764Z" fill="#FF232F"/>
<path d="M105.432 18.1089C115.767 24.3645 123.927 35.2439 119.575 51.2909C118.094 56.7512 97.0004 58.9577 97.0004 58.9577C97.0004 58.9577 109.037 39.4976 98.4635 28.5939C89.4568 19.3058 75.1908 17.7375 66.5381 27.3563C59.1953 35.519 55.8479 51.7829 64.1587 58.9577C77.9615 70.8738 103.324 58.9577 103.324 58.9577C103.324 58.9577 97.4232 73.2907 89.3848 77.4014C77.9046 83.2722 67.1357 79.2558 57.0187 70.8738C51.035 65.9163 48.3267 59.7715 47.4992 49.659C46.5462 38.0117 51.9598 28.077 61.1669 20.8799C73.2315 11.4491 92.3314 10.1796 105.432 18.1089Z" fill="#FF232F"/>
<path d="M24.721 12.1764C32.5519 9.94717 45.3918 14.8963 45.3918 14.8963C45.3918 14.8963 28.5124 32.3616 29.6167 45.9024C30.3506 54.901 39.4081 66.8452 39.4081 66.8452C39.4081 66.8452 22.9158 64.2405 15.6771 56.1866C9.90143 49.7606 5.14277 44.7343 5.68208 36.111C6.42757 24.1907 13.2338 15.4465 24.721 12.1764Z" stroke="#AE262D" stroke-width="3" stroke-linejoin="round"/>
<path d="M105.432 18.1089C115.767 24.3645 123.927 35.2439 119.575 51.2909C118.094 56.7512 97.0004 58.9577 97.0004 58.9577C97.0004 58.9577 109.037 39.4976 98.4635 28.5939C89.4568 19.3058 75.1908 17.7375 66.5381 27.3563C59.1953 35.519 55.8479 51.7829 64.1587 58.9577C77.9615 70.8738 103.324 58.9577 103.324 58.9577C103.324 58.9577 97.4232 73.2907 89.3848 77.4014C77.9046 83.2722 67.1357 79.2558 57.0187 70.8738C51.035 65.9163 48.3267 59.7715 47.4992 49.659C46.5462 38.0117 51.9598 28.077 61.1669 20.8799C73.2315 11.4491 92.3314 10.1796 105.432 18.1089Z" stroke="#AE262D" stroke-width="3" stroke-linejoin="round"/>
<path d="M110.328 11.0373C117.769 17.4991 123.111 32.796 123.111 32.796C123.111 32.796 113.723 21.3502 105.704 16.7489C96.4518 11.4406 89.9833 9.35925 79.3214 9.67736C64.9728 10.1055 48.8591 23.2766 48.8591 23.2766C48.8591 23.2766 36.8918 33.612 36.8918 46.3952C36.8918 64.3462 45.8673 75.2256 45.8673 75.2256C45.8673 75.2256 29.0043 69.2419 24.9245 52.9229C22.3216 42.5111 27.6227 28.4443 31.4521 23.2766C38.8717 13.2643 44.3831 10.2825 55.9307 5.5976C64.909 1.95507 70.9932 1.38179 80.6813 1.51783C92.8399 1.68856 101.146 3.06441 110.328 11.0373Z" fill="#FF232F" stroke="#AE262D" stroke-width="3" stroke-linejoin="round"/>
<path d="M147.861 47.2112C142.942 35.2439 123.655 31.4361 123.655 31.4361C123.655 31.4361 128.961 44.9858 127.463 56.4587C125.684 70.0742 95.0965 83.1131 95.0965 83.1131C95.0965 83.1131 120.678 88.8145 129.367 85.289C137.656 81.9255 141.11 77.2161 144.598 72.2337C148.085 67.2514 151.335 55.6598 147.861 47.2112Z" fill="#FF232F" stroke="#AE262D" stroke-width="3" stroke-linejoin="round"/>
<path d="M71.7107 89.5046C44.257 85.7693 26.8193 58.9066 26.8193 58.9066C26.8193 58.9066 30.7213 80.0374 40.4359 91.9902C50.1505 103.943 60.801 107.396 68.9359 109.505C80.3757 112.47 97.2949 107.91 101.592 105.859C111.798 100.987 123.807 82.2449 123.807 82.2449C123.807 82.2449 100.183 93.3786 71.7107 89.5046Z" fill="#FF232F" stroke="#AE262D" stroke-width="3" stroke-linejoin="round"/>
<path d="M31.2841 30.0371C33.1851 25.5037 36.4662 18.9679 41.121 17.879C42.4685 17.5638 44.8754 17.9538 45.3836 19.9952C46.8123 25.7348 39.6195 31.7153 37.4414 37.2911C34.175 45.6524 37.7468 57.5989 37.0027 59.3103C36.0742 61.4456 33.5766 59.0354 32.2597 57.2483C30.514 54.8791 29.5013 51.352 28.9576 48.3575C28.0778 43.5121 28.5337 36.5964 31.2841 30.0371Z" fill="#FF9098"/>
<path d="M61.9645 20.2451C64.4927 18.7979 68.419 16.923 71.2117 18.2172C72.0201 18.5918 73.1407 19.7216 72.7123 20.9068C71.5081 24.2388 65.734 24.3158 62.7077 26.1581C58.1695 28.921 55.9742 36.0904 55.006 36.6263C53.7979 37.295 53.3158 35.1536 53.2368 33.7751C53.1322 31.9476 53.8021 29.8472 54.5354 28.1877C55.722 25.5023 58.3065 22.339 61.9645 20.2451Z" fill="#FF9098"/>
<path d="M63.5457 74.3123C59.7908 72.1141 54.4374 68.5155 54.0007 64.6525C53.8743 63.5342 54.4822 61.6813 56.3242 61.5875C61.503 61.3238 65.9373 67.9454 70.5732 70.5221C77.5251 74.386 88.3707 73.362 89.7853 74.2129C91.5502 75.2746 89.1651 76.8928 87.456 77.6677C85.1902 78.6948 81.9927 78.964 79.3132 78.9414C74.9773 78.9048 68.9785 77.4929 63.5457 74.3123Z" fill="#FF9098"/>
<ellipse cx="46.6833" cy="134.633" rx="39.6983" ry="16.8449" transform="rotate(18.1995 46.6833 134.633)" fill="#2F640A"/>
<ellipse cx="49.447" cy="135.633" rx="40.5257" ry="17.679" transform="rotate(18.1995 49.447 135.633)" fill="#2C7F00"/>
<path d="M60.381 145.463C59.8172 142.041 62.3379 140.723 65.7575 140.146C69.3155 139.546 70.1741 143.645 70.4637 147.241C70.741 150.685 70.791 152.84 67.3462 153.104C64.0478 153.357 60.9188 148.727 60.381 145.463Z" fill="#349400"/>
<path d="M75.1458 143.664C72.5355 141.388 73.1025 139.301 74.682 137.365C76.3253 135.351 79.5574 137.997 82.1269 140.523C84.5872 142.942 86.0555 144.509 84.2529 146.226C82.5268 147.869 77.6357 145.835 75.1458 143.664Z" fill="#349400"/>
<path d="M46.746 128.448C48.0785 128.701 49.1017 129.856 50.3931 130.275C51.9897 130.795 53.926 130.662 55.5361 131.57C55.847 131.747 56.1583 131.933 56.4692 132.129C56.6266 132.228 56.7739 132.324 56.9242 132.425C57.0584 132.517 57.2528 132.642 57.2299 132.651C57.9599 133.154 58.7165 133.66 59.5335 134.217C60.2615 134.713 61.0181 135.249 61.7473 135.811C62.2711 136.238 62.8713 136.698 63.4572 137.167C64.404 137.923 65.3579 138.716 66.2852 139.568L66.1526 139.499C66.4836 139.767 66.8662 140.064 67.2315 140.388C67.6556 140.762 68.0416 141.161 68.3894 141.562L68.4338 141.596C68.8322 142.103 69.1907 142.603 69.5509 143.105C69.8358 143.502 70.1155 143.898 70.3961 144.296C70.606 144.593 70.8137 144.889 71.023 145.187C71.0516 145.228 71.0532 145.298 71.0254 145.385C70.9975 145.472 70.9429 145.568 70.8708 145.654C70.7988 145.74 70.7138 145.81 70.6329 145.852C70.5523 145.894 70.4827 145.904 70.4376 145.883C70.1083 145.724 69.7805 145.566 69.4513 145.408C69.0864 145.232 68.7226 145.058 68.3589 144.884C68.6051 144.492 68.7634 144.17 68.7398 143.95C68.7274 143.838 68.6577 143.738 68.5359 143.748C68.4272 143.757 68.294 143.825 68.1687 143.89C68.0365 143.958 67.9128 144.024 67.8283 144.013C67.6863 143.997 67.4749 144.076 67.2536 144.16C67.1739 144.192 67.0908 144.222 67.0115 144.251C66.8468 144.175 66.6838 144.102 66.5252 144.035L66.5812 144.077C66.4115 144.014 66.2449 143.957 66.0799 143.905C66.0037 143.796 65.929 143.702 65.8378 143.669C65.756 143.638 65.6391 143.682 65.5134 143.748C65.4654 143.737 65.4174 143.726 65.369 143.715C65.0586 143.644 64.7417 143.588 64.375 143.512C64.3489 143.482 64.3224 143.452 64.2948 143.422L64.1455 143.345C63.9854 143.133 63.8014 142.92 63.5297 142.722C63.3954 142.624 63.2825 142.488 63.1729 142.358C63.0109 142.167 62.8556 141.986 62.6531 141.956C62.5179 141.936 62.4265 141.816 62.3339 141.696C62.2104 141.536 62.0853 141.376 61.8572 141.459C61.7141 141.511 61.5671 141.589 61.4319 141.661C61.2157 141.776 61.0273 141.878 60.9218 141.839C60.723 141.765 60.4933 141.814 60.291 141.857C60.0477 141.908 59.8418 141.951 59.7725 141.761C59.762 141.732 59.7518 141.696 59.7406 141.654C59.6792 141.436 59.5847 141.089 59.1968 141.059C59.1526 141.055 59.1058 141.059 59.0574 141.068C58.9578 141.092 58.8506 141.142 58.7435 141.191C58.5174 141.296 58.2996 141.399 58.1939 141.253C58.1783 141.231 58.1792 141.172 58.1801 141.119C58.1813 141.051 58.1823 140.991 58.1482 141.026C58.0486 141.13 57.9184 141.235 57.7785 141.35C57.676 141.435 57.5662 141.524 57.4591 141.622C57.0543 141.511 56.6456 141.398 56.2259 141.278C56.0337 141.223 55.8392 141.167 55.6423 141.108C55.6354 140.877 55.6172 140.663 55.5741 140.488C55.5177 140.258 55.3666 140.125 55.1699 139.951C55.0254 139.823 54.8559 139.672 54.6834 139.445C54.502 139.206 54.2766 139.048 54.054 138.95C53.7903 138.826 53.6847 138.813 53.5447 138.801C53.4844 138.8 53.4161 138.797 53.3522 138.799C53.0986 138.801 52.7845 138.805 52.2405 138.732C51.7189 138.66 51.3132 138.532 50.9966 138.434C50.842 138.387 50.6993 138.343 50.5963 138.328C50.4114 138.299 50.1916 138.254 49.9624 138.207C49.6147 138.137 49.2542 138.069 49.0366 138.075C48.9603 138.077 48.8778 138.084 48.7878 138.092C48.538 138.112 48.2367 138.138 47.8594 138.089C47.4549 138.036 47.2325 137.915 47.0197 137.736C46.9327 137.663 46.8937 137.469 46.8514 137.267C46.79 136.981 46.7334 136.685 46.5208 136.707C46.4714 136.712 46.4125 136.739 46.3506 136.767C46.2378 136.818 46.1203 136.875 46.0308 136.81C45.9998 136.788 45.9819 136.733 45.9643 136.68C45.9448 136.621 45.9255 136.564 45.889 136.551C45.75 136.502 45.6182 136.478 45.4955 136.456C45.3386 136.428 45.2028 136.403 45.1334 136.342C45.0115 136.233 44.8381 136.257 44.6606 136.281C44.5234 136.299 44.3905 136.319 44.2745 136.28C43.94 136.167 43.4407 136.176 42.9081 136.269C42.7094 136.304 42.5784 136.164 42.4067 135.983C42.4059 135.983 42.4051 135.982 42.4043 135.981C42.3016 135.869 42.1828 135.741 42.0218 135.631C41.9317 135.57 41.8269 135.646 41.7301 135.717C41.641 135.783 41.5573 135.843 41.4985 135.787C41.4461 135.737 41.4412 135.569 41.4363 135.41C41.4307 135.233 41.4251 135.066 41.3542 135.084C41.3164 135.093 41.2581 135.165 41.1891 135.249C41.1619 135.283 41.133 135.318 41.103 135.353C41.1108 135.321 41.1169 135.292 41.1214 135.27C41.1531 135.115 41.1042 135.02 41.0557 134.927C41.0363 134.89 41.0169 134.853 41.003 134.813C40.9516 134.665 40.8073 134.614 40.6934 134.598C40.645 134.591 40.6111 134.534 40.5712 134.468C40.5358 134.409 40.4958 134.343 40.437 134.298C40.4036 134.272 40.384 134.222 40.3677 134.179C40.3559 134.149 40.3459 134.123 40.3336 134.114C40.323 134.107 40.305 134.15 40.2848 134.198C40.2703 134.232 40.2545 134.27 40.2395 134.293C40.2035 134.35 40.1689 134.362 40.1507 134.338C40.1423 134.327 40.1376 134.308 40.133 134.29C40.1276 134.268 40.1222 134.246 40.1109 134.236C40.0589 134.193 39.9922 134.233 39.9236 134.275C39.8482 134.32 39.7697 134.368 39.703 134.309C39.682 134.29 39.6629 134.253 39.6444 134.217C39.6249 134.179 39.606 134.143 39.5864 134.131C39.5068 134.08 39.4059 134.177 39.3131 134.265C39.2514 134.324 39.1933 134.38 39.1475 134.387C39.0635 134.399 38.9968 134.525 38.9477 134.618C38.9223 134.666 38.9014 134.706 38.8853 134.716C38.8733 134.71 38.8613 134.703 38.8495 134.696C38.8397 134.684 38.8296 134.672 38.8178 134.673C38.8169 134.673 38.816 134.674 38.8151 134.674C38.7504 134.629 38.6892 134.571 38.6282 134.512C38.4913 134.382 38.3555 134.253 38.183 134.282C38.1458 134.289 38.1005 134.338 38.0545 134.387C37.9982 134.448 37.9406 134.511 37.8952 134.498C37.7869 134.467 37.691 134.357 37.5962 134.248C37.4538 134.085 37.3133 133.926 37.1403 134.046C37.0832 134.086 37.0222 134.158 36.9607 134.23C36.9265 134.27 36.8921 134.311 36.8584 134.346C36.8763 134.274 36.8906 134.205 36.9041 134.142C36.9317 134.01 36.9555 133.898 36.9975 133.806C37.0969 133.589 37.2189 133.288 37.2489 133.059C37.257 132.997 37.2702 132.928 37.2835 132.859C37.3171 132.686 37.3514 132.509 37.3068 132.419C37.2767 132.358 37.1966 132.217 37.1108 132.34C37.0922 132.367 37.0743 132.423 37.0544 132.485C37.0186 132.597 36.9762 132.73 36.9107 132.752C36.8997 132.756 36.8879 132.759 36.8757 132.761C36.8273 132.772 36.7732 132.783 36.7392 132.872C36.7 132.975 36.6849 133.098 36.6673 133.241C36.6444 133.427 36.6172 133.648 36.5272 133.905C36.5093 133.956 36.4887 133.971 36.473 133.982C36.462 133.99 36.4536 133.997 36.4503 134.013C36.4466 134.031 36.4435 134.069 36.4396 134.117C36.426 134.287 36.4019 134.585 36.3019 134.581C36.2749 134.58 36.2469 134.561 36.2217 134.544C36.1847 134.519 36.1539 134.499 36.1417 134.546C36.1371 134.564 36.1328 134.584 36.1285 134.604C36.0976 134.593 36.0667 134.582 36.0358 134.571C36.0042 134.508 35.9459 134.503 35.873 134.498C35.8553 134.497 35.8367 134.496 35.8175 134.493C35.7563 134.471 35.6952 134.45 35.6342 134.428C35.588 134.396 35.5415 134.348 35.4949 134.276C35.4016 134.132 35.3357 133.909 35.2712 133.691C35.244 133.6 35.2171 133.508 35.1884 133.425C35.2057 133.417 35.2217 133.408 35.2351 133.395C35.3267 133.3 35.3893 133.096 35.4469 132.908C35.4853 132.783 35.5215 132.665 35.5627 132.592C35.6381 132.458 35.6587 132.29 35.6739 132.166C35.6818 132.102 35.6884 132.049 35.7003 132.019C35.7099 131.995 35.725 131.986 35.7406 131.976C35.7542 131.967 35.7682 131.958 35.7793 131.939C35.9131 131.71 35.9065 131.564 35.8966 131.351C35.8912 131.234 35.8848 131.096 35.9005 130.914C35.9197 130.72 35.9319 130.665 35.9944 130.596C35.9697 130.496 35.9451 130.395 35.9204 130.294C35.904 130.298 35.8831 130.355 35.8514 130.451C35.7948 130.622 35.6895 130.671 35.6075 130.71C35.5696 130.728 35.536 130.744 35.5149 130.768C35.4024 130.897 35.3983 131.101 35.3945 131.28C35.3924 131.378 35.3904 131.47 35.3708 131.537C35.3624 131.566 35.3635 131.596 35.3645 131.626C35.3653 131.65 35.3662 131.674 35.3627 131.698C35.337 131.873 35.2639 131.995 35.1962 132.108C35.1575 132.172 35.1205 132.234 35.095 132.302C35.0873 132.322 35.0804 132.344 35.0738 132.364C35.0642 132.394 35.055 132.423 35.0437 132.447C35.0179 132.501 34.9769 132.534 34.932 132.57C34.9091 132.589 34.8851 132.608 34.8616 132.632C34.8313 132.662 34.8118 132.73 34.7913 132.801C34.7768 132.851 34.7617 132.902 34.742 132.944C34.7064 133.019 34.6542 133.04 34.6058 133.059C34.5847 133.068 34.5643 133.076 34.5464 133.088C34.5391 133.093 34.5342 133.105 34.5311 133.121C34.4501 133.165 34.3724 133.21 34.297 133.255C33.9164 133.479 33.5895 133.674 33.1769 133.439C33.0984 133.394 33.0085 133.388 32.9154 133.401C32.6371 133.291 32.359 133.18 32.0814 133.067C32.047 132.902 31.9952 132.759 31.9262 132.644C31.7968 132.427 31.6446 132.364 31.4608 132.288C31.3271 132.233 31.1757 132.171 31.0095 132.037C30.73 131.812 30.4356 131.614 30.0934 131.487C29.755 131.36 29.3528 131.248 29.0716 131.191C28.9964 131.176 28.9246 131.131 28.8565 131.071C28.7784 131.006 28.7048 130.925 28.6355 130.847C28.4426 130.635 28.2712 130.445 28.1237 130.671C28.0768 130.743 28.0265 130.873 27.9734 130.998C27.9363 131.087 27.9001 131.174 27.8674 131.238C27.8042 131.209 27.7474 131.181 27.6819 131.152C27.5857 130.978 27.4287 130.784 27.235 130.942C27.1693 130.912 27.1107 130.883 27.0457 130.853C26.9109 130.789 26.7821 130.727 26.6466 130.663C26.604 130.642 26.5606 130.621 26.5158 130.6C26.5154 130.6 26.515 130.6 26.5146 130.599C26.428 130.557 26.3381 130.515 26.2507 130.473C26.2122 130.455 26.1783 130.437 26.139 130.419C26.0439 130.374 25.9498 130.329 25.8555 130.284C25.8057 130.26 25.7582 130.237 25.7062 130.213C25.6263 130.174 25.5449 130.136 25.465 130.099C25.3348 130.039 25.2127 129.981 25.0834 129.929C25.0623 129.92 25.0409 129.893 25.0251 129.852C25.0091 129.811 25 129.76 25 129.707C25 129.655 25.0092 129.603 25.0254 129.563C25.0415 129.522 25.0639 129.496 25.0866 129.488C25.2273 129.438 25.3723 129.395 25.5184 129.356C25.6087 129.332 25.7 129.309 25.7893 129.286C25.8471 129.273 25.9002 129.259 25.9556 129.246C26.0605 129.221 26.1648 129.197 26.2701 129.174C26.3133 129.165 26.3511 129.155 26.3936 129.146C26.4904 129.124 26.5896 129.104 26.6855 129.083C26.6861 129.083 26.6867 129.083 26.6873 129.083C26.7362 129.073 26.7835 129.063 26.8303 129.052C26.9792 129.023 27.1211 128.993 27.269 128.964C27.3491 128.949 27.4224 128.933 27.5042 128.919C27.5506 128.91 27.591 128.902 27.6344 128.893C27.6578 128.889 27.6817 128.885 27.706 128.88C28.1945 128.789 28.6765 128.703 29.1655 128.625C29.2266 128.615 29.2886 128.604 29.3517 128.595C29.9005 128.507 30.4517 128.428 30.9983 128.356C31.5468 128.284 32.0961 128.22 32.6438 128.163C36.1266 127.806 39.6246 127.65 43.1919 127.957C43.5197 127.986 43.8529 128.02 44.1839 128.059C44.3717 128.081 44.5568 128.104 44.7382 128.128C45.2493 128.195 45.7512 128.27 46.2666 128.36C46.4207 128.387 46.5801 128.416 46.746 128.448Z" fill="#2F640A"/>
<path d="M53.4829 153.013C68.17 155.189 71.3726 156.563 81.4973 156.821C93.4053 157.124 99.7664 156.023 110.056 150.021C116.583 146.213 140.024 132.614 142.15 138.87C143.346 142.39 138.917 149.688 137.254 153.013C133.582 160.357 132.849 162.492 124.743 165.796C110.272 171.695 90.7447 169.203 86.393 169.332C82.0412 169.461 69.258 171.508 59.7386 171.508C50.2191 171.508 40.1172 173.29 31.8602 169.332C23.7544 165.446 23.3295 158.012 19.2129 150.021C14.5892 141.046 40.1507 151.038 53.4829 153.013Z" fill="#EC3941" stroke="#94353C" stroke-width="3"/>
<path d="M47.7712 157.093C22.0687 154.645 23.0206 150.973 22.0687 148.253C21.1168 145.533 39.3696 152.6 50.2191 154.645C61.9917 156.863 77.8255 157.093 77.8255 157.093C77.8255 157.093 64.9905 158.733 47.7712 157.093Z" fill="#D73333"/>
<path d="M112.231 151.925C103.387 156.593 85.713 157.093 85.713 157.093C85.713 157.093 102.092 157.272 112.231 154.645C116.583 153.517 124.063 149.477 128.687 146.893C133.31 144.309 137.798 142.134 137.798 140.774C137.798 137.243 122.023 146.757 112.231 151.925Z" fill="#D73333"/>
<path d="M96.1471 181.631C90.393 173.563 81.6558 160.801 81.6558 160.801L84.9747 161.116C84.9747 161.116 99.3463 172.245 105.473 180.595C116.486 195.604 129.591 209.25 129.591 209.25C129.591 209.25 125.275 208.606 122.697 210.016C120.216 211.372 118.177 217.359 118.177 217.359C118.177 217.359 105.498 194.741 96.1471 181.631Z" fill="#D73232" stroke="#94353C" stroke-width="3"/>
<path d="M95.7867 179.618C90.0326 171.551 80.4093 159.434 80.4093 159.434L85.5454 158.863C85.5454 158.863 104.335 175.239 110.192 182.387C121.99 196.788 128.855 208.784 128.855 208.784C128.855 208.784 125.846 206.354 123.268 207.763C120.787 209.12 117.982 214.371 117.982 214.371C117.982 214.371 105.137 192.729 95.7867 179.618Z" fill="#EC3941"/>
<path d="M59.6985 172.995C68.4634 165.029 84.1771 158.036 84.1771 158.036L86.353 161.844C86.353 161.844 76.5558 167.852 71.3939 172.995C63.1466 181.212 58.4462 186.996 55.6188 198.29C52.7479 209.756 59.6986 226.848 59.6986 226.848C59.6986 226.848 54.4518 223.48 51.267 223.584C47.5017 223.707 43.1075 228.48 43.1075 228.48C43.1075 228.48 40.6156 211.96 43.1075 199.921C45.6812 187.488 50.3022 181.535 59.6985 172.995Z" fill="#D73232" stroke="#94353C" stroke-width="3"/>
<path d="M61.3456 169.403C70.431 161.493 78.5 160.5 78.5 160.5L81 161.5C81 161.5 78.8192 164.297 73.4686 169.403C64.9198 177.563 60.0475 183.307 57.1167 194.521C54.1409 205.907 59.3721 224.5 59.3721 224.5C59.3721 224.5 55.9071 219.536 52.6059 219.638C48.7029 219.76 44.148 224.5 44.148 224.5C44.148 224.5 41.565 208.096 44.148 196.141C46.8158 183.795 51.6058 177.883 61.3456 169.403Z" fill="#EC3941"/>
<path d="M60.223 170.819C67.3479 164.114 81.4377 157.492 81.4377 157.492C81.4377 157.492 59.9534 174.697 52.6074 186.05C44.1397 199.137 44.4479 219.504 44.4479 219.504C44.4479 219.504 42.3481 197.797 48.2557 186.05C51.6542 179.292 54.7144 176.003 60.223 170.819Z" fill="#FF5C62"/>
<path d="M77.0575 169.879C76.6894 165.155 77.2442 155.557 80.3873 155.686C83.3589 155.808 84.5906 160.297 85.243 161.704C85.8955 163.111 89.0869 174.615 87.4558 175.233C85.1709 176.097 77.2472 172.315 77.0575 169.879Z" fill="#D73232"/>
<path d="M83.6731 169.876C81.1832 165.844 77.2837 157.057 80.1373 155.733C82.8352 154.481 85.985 157.909 87.209 158.861C88.4329 159.813 96.5362 168.581 95.3685 169.876C93.7327 171.691 84.9566 171.955 83.6731 169.876Z" fill="#FA4D59"/>
</svg>
