<?xml version="1.0" standalone="no"?>
<!DOCTYPE svg PUBLIC "-//W3C//DTD SVG 20010904//EN"
 "http://www.w3.org/TR/2001/REC-SVG-20010904/DTD/svg10.dtd">
<svg width="32" height="29" viewBox="0 0 32 29" fill="none" xmlns="http://www.w3.org/2000/svg">
<mask id="path-1-outside-1_137_2" maskUnits="userSpaceOnUse" x="-0.296021" y="-0.449158" width="32" height="30" fill="black">
<rect fill="white" x="-0.296021" y="-0.449158" width="32" height="30"/>
<path d="M17.784 25.8788V18.3908C17.784 14.2948 18.584 10.9348 20.184 8.31084C21.848 5.68684 24.504 4.08684 28.152 3.51084V7.44684C25.976 7.70284 24.44 8.53484 23.544 9.94284C22.648 11.3508 22.2 13.5908 22.2 16.6628L19.32 16.2788H28.056V25.8788H17.784ZM2.99998 25.8788V18.3908C2.99998 14.2948 3.79998 10.9348 5.39998 8.31084C7.06398 5.68684 9.71998 4.08684 13.368 3.51084V7.44684C11.192 7.70284 9.65598 8.53484 8.75998 9.94284C7.86398 11.3508 7.41598 13.5908 7.41598 16.6628L4.53598 16.2788H13.272V25.8788H2.99998Z"/>
</mask>
<path d="M17.784 25.8788V18.3908C17.784 14.2948 18.584 10.9348 20.184 8.31084C21.848 5.68684 24.504 4.08684 28.152 3.51084V7.44684C25.976 7.70284 24.44 8.53484 23.544 9.94284C22.648 11.3508 22.2 13.5908 22.2 16.6628L19.32 16.2788H28.056V25.8788H17.784ZM2.99998 25.8788V18.3908C2.99998 14.2948 3.79998 10.9348 5.39998 8.31084C7.06398 5.68684 9.71998 4.08684 13.368 3.51084V7.44684C11.192 7.70284 9.65598 8.53484 8.75998 9.94284C7.86398 11.3508 7.41598 13.5908 7.41598 16.6628L4.53598 16.2788H13.272V25.8788H2.99998Z" fill="#E20032"/>
<path d="M17.784 25.8788H14.784V28.8788H17.784V25.8788ZM20.184 8.31084L17.6505 6.70421L17.6363 6.72649L17.6226 6.74901L20.184 8.31084ZM28.152 3.51084H31.152V-8.8408e-06L27.6841 0.547552L28.152 3.51084ZM28.152 7.44684L28.5025 10.4263L31.152 10.1146V7.44684H28.152ZM22.2 16.6628L21.8035 19.6365L25.2 20.0894V16.6628H22.2ZM19.32 16.2788V13.2788L18.9235 19.2525L19.32 16.2788ZM28.056 16.2788H31.056V13.2788H28.056V16.2788ZM28.056 25.8788V28.8788H31.056V25.8788H28.056ZM2.99998 25.8788H-2.00272e-05V28.8788H2.99998V25.8788ZM5.39998 8.31084L2.86646 6.70421L2.85233 6.72649L2.83859 6.74901L5.39998 8.31084ZM13.368 3.51084H16.368V-8.8408e-06L12.9001 0.547552L13.368 3.51084ZM13.368 7.44684L13.7185 10.4263L16.368 10.1146V7.44684H13.368ZM7.41598 16.6628L7.01949 19.6365L10.416 20.0894V16.6628H7.41598ZM4.53598 16.2788V13.2788L4.13949 19.2525L4.53598 16.2788ZM13.272 16.2788H16.272V13.2788H13.272V16.2788ZM13.272 25.8788V28.8788H16.272V25.8788H13.272ZM17.784 25.8788H20.784V18.3908H17.784H14.784V25.8788H17.784ZM17.784 18.3908H20.784C20.784 14.6677 21.5126 11.8943 22.7454 9.87266L20.184 8.31084L17.6226 6.74901C15.6553 9.97533 14.784 13.922 14.784 18.3908H17.784ZM20.184 8.31084L22.7175 9.91746C23.8323 8.15954 25.6473 6.94348 28.6199 6.47413L28.152 3.51084L27.6841 0.547552C23.3607 1.2302 19.8637 3.21414 17.6505 6.70421L20.184 8.31084ZM28.152 3.51084H25.152V7.44684H28.152H31.152V3.51084H28.152ZM28.152 7.44684L27.8015 4.46738C25.0309 4.79333 22.5353 5.94003 21.013 8.33221L23.544 9.94284L26.075 11.5535C26.3447 11.1296 26.9211 10.6123 28.5025 10.4263L28.152 7.44684ZM23.544 9.94284L21.013 8.33221C19.647 10.4788 19.2 13.4308 19.2 16.6628H22.2H25.2C25.2 13.7508 25.649 12.2229 26.075 11.5535L23.544 9.94284ZM22.2 16.6628L22.5965 13.6892L19.7165 13.3052L19.32 16.2788L18.9235 19.2525L21.8035 19.6365L22.2 16.6628ZM19.32 16.2788V19.2788H28.056V16.2788V13.2788H19.32V16.2788ZM28.056 16.2788H25.056V25.8788H28.056H31.056V16.2788H28.056ZM28.056 25.8788V22.8788H17.784V25.8788V28.8788H28.056V25.8788ZM2.99998 25.8788H5.99998V18.3908H2.99998H-2.00272e-05V25.8788H2.99998ZM2.99998 18.3908H5.99998C5.99998 14.6677 6.72863 11.8943 7.96137 9.87266L5.39998 8.31084L2.83859 6.74901C0.871326 9.97533 -2.00272e-05 13.922 -2.00272e-05 18.3908H2.99998ZM5.39998 8.31084L7.9335 9.91746C9.04829 8.15954 10.8633 6.94348 13.8359 6.47413L13.368 3.51084L12.9001 0.547552C8.57666 1.2302 5.07967 3.21414 2.86646 6.70421L5.39998 8.31084ZM13.368 3.51084H10.368V7.44684H13.368H16.368V3.51084H13.368ZM13.368 7.44684L13.0175 4.46738C10.2469 4.79333 7.75129 5.94003 6.229 8.33221L8.75998 9.94284L11.291 11.5535C11.5607 11.1296 12.1371 10.6123 13.7185 10.4263L13.368 7.44684ZM8.75998 9.94284L6.229 8.33221C4.863 10.4788 4.41598 13.4308 4.41598 16.6628H7.41598H10.416C10.416 13.7508 10.865 12.2229 11.291 11.5535L8.75998 9.94284ZM7.41598 16.6628L7.81247 13.6892L4.93247 13.3052L4.53598 16.2788L4.13949 19.2525L7.01949 19.6365L7.41598 16.6628ZM4.53598 16.2788V19.2788H13.272V16.2788V13.2788H4.53598V16.2788ZM13.272 16.2788H10.272V25.8788H13.272H16.272V16.2788H13.272ZM13.272 25.8788V22.8788H2.99998V25.8788V28.8788H13.272V25.8788Z" fill="white" mask="url(#path-1-outside-1_137_2)"/>
</svg>
