<?xml version="1.0" standalone="no"?>
<!DOCTYPE svg PUBLIC "-//W3C//DTD SVG 20010904//EN"
 "http://www.w3.org/TR/2001/REC-SVG-20010904/DTD/svg10.dtd">
<svg width="32" height="29" viewBox="0 0 32 29" fill="none" xmlns="http://www.w3.org/2000/svg">
<mask id="path-1-outside-1_137_3" maskUnits="userSpaceOnUse" x="-0.81604" y="-0.575989" width="32" height="30" fill="black">
<rect fill="white" x="-0.81604" y="-0.575989" width="32" height="30"/>
<path d="M17.784 25.368V21.432C19.96 21.176 21.496 20.344 22.392 18.936C23.288 17.528 23.736 15.288 23.736 12.216L26.616 12.6H17.88V3.00001H28.152V10.488C28.152 14.584 27.32 17.944 25.656 20.568C24.056 23.192 21.432 24.792 17.784 25.368ZM2.99996 25.368V21.432C5.17596 21.176 6.71196 20.344 7.60796 18.936C8.50396 17.528 8.95196 15.288 8.95196 12.216L11.832 12.6H3.09596V3.00001H13.368V10.488C13.368 14.584 12.536 17.944 10.872 20.568C9.27196 23.192 6.64796 24.792 2.99996 25.368Z"/>
</mask>
<path d="M17.784 25.368V21.432C19.96 21.176 21.496 20.344 22.392 18.936C23.288 17.528 23.736 15.288 23.736 12.216L26.616 12.6H17.88V3.00001H28.152V10.488C28.152 14.584 27.32 17.944 25.656 20.568C24.056 23.192 21.432 24.792 17.784 25.368ZM2.99996 25.368V21.432C5.17596 21.176 6.71196 20.344 7.60796 18.936C8.50396 17.528 8.95196 15.288 8.95196 12.216L11.832 12.6H3.09596V3.00001H13.368V10.488C13.368 14.584 12.536 17.944 10.872 20.568C9.27196 23.192 6.64796 24.792 2.99996 25.368Z" fill="#E20032"/>
<path d="M17.784 25.368H14.784V28.8789L18.2518 28.3313L17.784 25.368ZM17.784 21.432L17.4334 18.4526L14.784 18.7643V21.432H17.784ZM22.392 18.936L24.9229 20.5466L24.9229 20.5466L22.392 18.936ZM23.736 12.216L24.1324 9.24233L20.736 8.78947V12.216H23.736ZM26.616 12.6V15.6L27.0124 9.62632L26.616 12.6ZM17.88 12.6H14.88V15.6H17.88V12.6ZM17.88 3.00001V9.53674e-06H14.88V3.00001H17.88ZM28.152 3.00001H31.152V9.53674e-06H28.152V3.00001ZM25.656 20.568L23.1224 18.9614L23.1083 18.9837L23.0946 19.0062L25.656 20.568ZM2.99996 25.368H-3.98159e-05V28.8789L3.46785 28.3313L2.99996 25.368ZM2.99996 21.432L2.64944 18.4526L-3.98159e-05 18.7643V21.432H2.99996ZM7.60796 18.936L10.1389 20.5466L10.1389 20.5466L7.60796 18.936ZM8.95196 12.216L9.34845 9.24233L5.95196 8.78947V12.216H8.95196ZM11.832 12.6V15.6L12.2284 9.62632L11.832 12.6ZM3.09596 12.6H0.0959604V15.6H3.09596V12.6ZM3.09596 3.00001V9.53674e-06H0.0959604V3.00001H3.09596ZM13.368 3.00001H16.368V9.53674e-06H13.368V3.00001ZM10.872 20.568L8.33844 18.9614L8.32431 18.9837L8.31057 19.0062L10.872 20.568ZM17.784 25.368H20.784V21.432H17.784H14.784V25.368H17.784ZM17.784 21.432L18.1345 24.4115C20.905 24.0855 23.4006 22.9388 24.9229 20.5466L22.392 18.936L19.861 17.3254C19.5913 17.7492 19.0149 18.2665 17.4334 18.4526L17.784 21.432ZM22.392 18.936L24.9229 20.5466C26.2889 18.4001 26.736 15.448 26.736 12.216H23.736H20.736C20.736 15.128 20.287 16.656 19.861 17.3254L22.392 18.936ZM23.736 12.216L23.3395 15.1897L26.2195 15.5737L26.616 12.6L27.0124 9.62632L24.1324 9.24233L23.736 12.216ZM26.616 12.6V9.60001H17.88V12.6V15.6H26.616V12.6ZM17.88 12.6H20.88V3.00001H17.88H14.88V12.6H17.88ZM17.88 3.00001V6.00001H28.152V3.00001V9.53674e-06H17.88V3.00001ZM28.152 3.00001H25.152V10.488H28.152H31.152V3.00001H28.152ZM28.152 10.488H25.152C25.152 14.1923 24.399 16.9483 23.1224 18.9614L25.656 20.568L28.1895 22.1746C30.2409 18.9397 31.152 14.9757 31.152 10.488H28.152ZM25.656 20.568L23.0946 19.0062C22.0456 20.7264 20.2872 21.9356 17.3161 22.4047L17.784 25.368L18.2518 28.3313C22.5768 27.6484 26.0663 25.6576 28.2173 22.1298L25.656 20.568ZM2.99996 25.368H5.99996V21.432H2.99996H-3.98159e-05V25.368H2.99996ZM2.99996 21.432L3.35048 24.4115C6.12103 24.0855 8.61665 22.9388 10.1389 20.5466L7.60796 18.936L5.07698 17.3254C4.80727 17.7492 4.23089 18.2665 2.64944 18.4526L2.99996 21.432ZM7.60796 18.936L10.1389 20.5466C11.5049 18.4001 11.952 15.448 11.952 12.216H8.95196H5.95196C5.95196 15.128 5.50298 16.656 5.07698 17.3254L7.60796 18.936ZM8.95196 12.216L8.55547 15.1897L11.4355 15.5737L11.832 12.6L12.2284 9.62632L9.34845 9.24233L8.95196 12.216ZM11.832 12.6V9.60001H3.09596V12.6V15.6H11.832V12.6ZM3.09596 12.6H6.09596V3.00001H3.09596H0.0959604V12.6H3.09596ZM3.09596 3.00001V6.00001H13.368V3.00001V9.53674e-06H3.09596V3.00001ZM13.368 3.00001H10.368V10.488H13.368H16.368V3.00001H13.368ZM13.368 10.488H10.368C10.368 14.1923 9.615 16.9483 8.33844 18.9614L10.872 20.568L13.4055 22.1746C15.4569 18.9397 16.368 14.9757 16.368 10.488H13.368ZM10.872 20.568L8.31057 19.0062C7.26165 20.7264 5.50317 21.9356 2.53207 22.4047L2.99996 25.368L3.46785 28.3313C7.79275 27.6484 11.2823 25.6576 13.4333 22.1298L10.872 20.568Z" fill="white" mask="url(#path-1-outside-1_137_3)"/>
</svg>
