<?xml version="1.0" standalone="no"?>
<!DOCTYPE svg PUBLIC "-//W3C//DTD SVG 20010904//EN"
 "http://www.w3.org/TR/2001/REC-SVG-20010904/DTD/svg10.dtd">
<svg width="117" height="137" viewBox="0 0 117 137" fill="none" xmlns="http://www.w3.org/2000/svg">
<path d="M8.25208 35.1518C7.96048 41.2322 13.4604 51.8629 21.0767 60.8274C28.425 69.4767 36.6124 69.6957 44.9617 77.3832C54.7477 86.3936 65.9708 104.195 65.9708 104.195C65.9708 104.195 74.5019 117.192 77.4334 119.297C80.3649 121.402 86.0445 121.083 88.996 120.386C95.8086 118.775 102.927 111.861 102.927 111.861C102.927 111.861 109.872 105.443 109.059 98.5378C108.246 91.6329 89.8636 69.2952 89.8636 69.2952C89.8636 69.2952 84.0876 60.9901 80.7637 55.4321C76.7998 48.8041 75.7117 44.4306 71.4738 37.9744C69.6254 35.1584 64.8721 26.5006 56.0777 20.1856C52.0427 17.2882 47.2641 14.8323 42.3212 14.3382C38.2236 13.9285 34.4448 13.6262 25.3922 16.8518L25.1267 16.9464C19.0019 18.948 13.9074 22.9914 12.2044 25.1188C10.5014 27.2462 8.54368 29.0715 8.25208 35.1518Z" fill="#FFEC3C"/>
<path d="M70.8241 38.4011C68.9426 35.5347 64.2738 27.0282 55.6242 20.8171C51.6418 17.9575 46.9943 15.5863 42.244 15.1113C40.2037 14.9074 38.3015 14.7376 35.7973 15.005C33.8124 15.217 31.43 15.707 28.3004 16.6934C28.2949 16.7004 28.2898 16.7079 28.284 16.7145C28.2501 16.7327 28.2032 16.7542 28.1906 16.7594C28.1844 16.7619 28.1743 16.7658 28.1703 16.7673C28.1601 16.7711 28.151 16.7745 28.1494 16.775C28.1435 16.777 28.1366 16.7792 28.1309 16.7811C28.107 16.789 28.0584 16.8051 27.9826 16.83C27.6768 16.9305 26.8992 17.1849 25.3683 17.6852C19.377 19.6432 14.4133 23.6034 12.8114 25.6045C11.9241 26.7129 11.0856 27.6131 10.3946 28.9997C9.71389 30.3655 9.1703 32.2317 9.02847 35.1891C8.89259 38.0226 10.1183 42.0514 12.3927 46.5577C14.6527 51.0355 17.8964 55.8839 21.669 60.3244C25.2429 64.531 29.0168 66.6916 33.0041 68.7771C36.9892 70.8614 41.2235 72.8846 45.4883 76.8114C50.4418 81.3723 55.7319 88.1288 59.7663 93.713C61.7878 96.5111 63.502 99.0265 64.7112 100.842C65.3158 101.75 65.7944 102.484 66.1221 102.991C66.2859 103.244 66.4122 103.441 66.4976 103.575C66.5403 103.642 66.573 103.693 66.5949 103.728C66.6058 103.745 66.614 103.758 66.6196 103.767L66.6446 103.805C66.6606 103.83 66.6848 103.866 66.7161 103.913C66.7789 104.008 66.8715 104.149 66.9905 104.328C67.2286 104.686 67.5722 105.2 67.9937 105.824C68.8371 107.072 69.9914 108.757 71.2362 110.506C72.4821 112.257 73.8135 114.066 75.0124 115.563C76.2338 117.09 77.2543 118.211 77.8869 118.665C79.1683 119.586 81.1371 120.022 83.2417 120.116C85.3234 120.209 87.4097 119.962 88.8172 119.629C92.0686 118.861 95.4491 116.805 98.0563 114.893C99.3507 113.943 100.436 113.043 101.198 112.38C101.578 112.049 101.877 111.778 102.08 111.59C102.181 111.497 102.259 111.424 102.31 111.375C102.336 111.351 102.355 111.332 102.368 111.32C102.374 111.314 102.379 111.31 102.382 111.307C102.383 111.306 102.384 111.304 102.385 111.304L102.385 111.303L102.392 111.297L102.399 111.29C102.399 111.29 102.4 111.289 102.402 111.288C102.404 111.286 102.408 111.282 102.414 111.277C102.425 111.266 102.443 111.249 102.466 111.227C102.513 111.182 102.583 111.113 102.673 111.023C102.853 110.842 103.112 110.574 103.421 110.23C104.041 109.542 104.859 108.554 105.65 107.36C107.248 104.947 108.661 101.808 108.287 98.6289C108.199 97.8871 107.863 96.8704 107.293 95.6216C106.729 94.3857 105.96 92.974 105.05 91.4555C103.229 88.419 100.871 85.0004 98.5279 81.7847C96.187 78.5715 93.8703 75.5718 92.1382 73.3748C91.2724 72.2765 90.5532 71.3792 90.0506 70.757C89.7993 70.4459 89.602 70.2033 89.4679 70.0389C89.4009 69.9568 89.3495 69.8943 89.3151 69.8523C89.2979 69.8313 89.2847 69.8153 89.276 69.8047C89.2717 69.7995 89.2685 69.7954 89.2664 69.7928C89.2654 69.7916 89.2645 69.7908 89.264 69.7902L89.2635 69.7893L89.2433 69.765L89.2257 69.7391L89.8637 69.2954L89.2254 69.7386C89.2252 69.7384 89.2249 69.7379 89.2245 69.7374C89.2238 69.7364 89.2224 69.735 89.2211 69.733C89.2182 69.7289 89.214 69.7227 89.2084 69.7147C89.1973 69.6986 89.1809 69.6747 89.1592 69.6434C89.1159 69.581 89.0521 69.4887 88.9697 69.3695C88.8049 69.1309 88.5654 68.784 88.2682 68.3505C87.6736 67.4835 86.8461 66.2693 85.9146 64.8812C84.0537 62.1081 81.7692 58.6283 80.0963 55.8311C78.0919 52.4794 76.813 49.6937 75.5195 46.9727C74.2266 44.2528 72.9132 41.5837 70.8241 38.4011ZM28.1173 16.7852C28.1207 16.7842 28.1235 16.7832 28.1243 16.783C28.1254 16.7827 28.1261 16.7824 28.1263 16.7823C28.1248 16.7828 28.1213 16.7838 28.1157 16.7856L28.1173 16.7852ZM72.1237 37.548C74.2724 40.8214 75.6221 43.5676 76.9236 46.3053C78.2245 49.0421 79.4717 51.757 81.431 55.0331C83.082 57.7939 85.3476 61.2461 87.2057 64.015C88.1335 65.3977 88.9577 66.6073 89.5499 67.471C89.846 67.9028 90.0845 68.2481 90.2484 68.4854C90.3304 68.604 90.3939 68.6957 90.4368 68.7576C90.4569 68.7865 90.4719 68.8092 90.4828 68.8249C90.4915 68.8354 90.5032 68.8493 90.5176 68.8668C90.5527 68.9097 90.6046 68.9734 90.6723 69.0564C90.8079 69.2226 91.0069 69.4667 91.2598 69.7798C91.7656 70.4061 92.4886 71.3084 93.3587 72.412C95.0985 74.619 97.4283 77.6355 99.7845 80.8696C102.139 84.1014 104.528 87.562 106.383 90.6558C107.31 92.2024 108.111 93.6686 108.707 94.976C109.298 96.2703 109.715 97.4623 109.831 98.4466C110.269 102.172 108.616 105.696 106.946 108.218C106.102 109.491 105.234 110.54 104.577 111.27C104.248 111.636 103.971 111.923 103.775 112.12C103.676 112.219 103.598 112.295 103.544 112.348C103.516 112.374 103.495 112.394 103.48 112.408C103.472 112.415 103.466 112.421 103.462 112.425C103.462 112.425 103.461 112.426 103.46 112.426C103.456 112.43 103.451 112.435 103.445 112.442C103.43 112.456 103.409 112.477 103.38 112.503C103.324 112.556 103.242 112.634 103.136 112.732C102.923 112.929 102.612 113.211 102.218 113.553C101.432 114.237 100.313 115.166 98.976 116.146C96.3209 118.094 92.7359 120.3 89.1748 121.142C87.6309 121.507 85.4014 121.768 83.1727 121.669C80.9669 121.57 78.6299 121.113 76.9799 119.928C76.1468 119.33 75.0015 118.038 73.7989 116.535C72.5737 115.004 71.2227 113.169 69.9693 111.407C68.715 109.645 67.5532 107.949 66.7054 106.694C66.2815 106.067 65.9358 105.549 65.6959 105.188C65.5759 105.008 65.4823 104.866 65.4187 104.77C65.3869 104.722 65.3625 104.685 65.3461 104.66L65.3113 104.607C65.3101 104.605 65.3083 104.602 65.3057 104.598C65.3004 104.589 65.2922 104.577 65.2816 104.56C65.2605 104.527 65.2287 104.477 65.1868 104.411C65.103 104.28 64.9784 104.085 64.8163 103.835C64.4921 103.333 64.0174 102.605 63.4171 101.704C62.2161 99.9004 60.5134 97.4018 58.5059 94.6232C54.4823 89.054 49.2674 82.4044 44.435 77.955C40.3506 74.1944 36.3167 72.2643 32.2837 70.155C28.2531 68.0468 24.2589 65.7733 20.4845 61.3308C16.6409 56.8068 13.326 51.8569 11.0049 47.2581C8.69826 42.688 7.32004 38.3611 7.47575 35.1144C7.62553 31.9916 8.20663 29.905 9.00346 28.3062C9.78989 26.7283 10.7818 25.6519 11.5975 24.633C13.4002 22.3811 18.6184 18.2597 24.8697 16.2128L25.1313 16.1197L25.9721 15.8245C30.102 14.401 33.132 13.7259 35.6323 13.4589C38.3051 13.1734 40.3414 13.359 42.3989 13.5647C47.5341 14.0782 52.4437 16.6188 56.5312 19.554C65.4704 25.973 70.3084 34.7825 72.1237 37.548Z" fill="#5C4027"/>
<mask id="mask0_115_140" style="mask-type:alpha" maskUnits="userSpaceOnUse" x="8" y="15" width="101" height="106">
<path d="M8.79325 35.9601C8.50892 41.9436 13.9238 52.4075 21.4199 61.2326C28.6523 69.7473 36.7066 69.9662 44.9232 77.5349C54.5537 86.406 65.6016 103.929 65.6016 103.929C65.6016 103.929 73.9994 116.723 76.884 118.795C79.7687 120.868 82.7666 120.427 86.5609 120.071C93.4166 119.426 101.96 111.488 101.96 111.488C101.96 111.488 108.789 105.175 107.986 98.3795C107.183 91.5841 89.0912 69.5942 89.0912 69.5942C89.0912 69.5942 83.4057 61.4188 80.1336 55.9479C76.2315 49.4237 75.1593 45.1192 70.9876 38.764C69.1681 35.9921 64.4885 27.4701 55.8346 21.2518C51.864 18.3988 47.1622 15.9801 42.2995 15.4917C38.2683 15.0868 34.5509 14.7878 25.6469 17.9583L25.3858 18.0513C19.3614 20.0185 14.3516 23.9955 12.6771 26.0883C11.0027 28.1811 9.07758 29.9766 8.79325 35.9601Z" fill="#FFDB3A"/>
</mask>
<g mask="url(#mask0_115_140)">
<path d="M52.3076 22.6048C56.0769 28.3471 54.5745 35.9941 48.9518 39.6849C43.3291 43.3757 35.7155 41.7126 31.9461 35.9703C28.1768 30.228 29.6793 22.581 35.302 18.8902C40.9246 15.1994 48.5383 16.8625 52.3076 22.6048Z" fill="#FF8300"/>
<path d="M48.2104 25.575C50.4862 29.042 49.5791 33.6591 46.1843 35.8875C42.7895 38.1159 38.1925 37.1117 35.9167 33.6447C33.6409 30.1777 34.548 25.5606 37.9429 23.3322C41.3377 21.1038 45.9346 22.1079 48.2104 25.575Z" fill="#F9C009"/>
<path d="M91.26 96.6477C94.8241 102.077 93.3073 109.371 87.8721 112.939C82.4369 116.506 75.1416 114.997 71.5776 109.567C68.0135 104.138 69.5303 96.8441 74.9655 93.2764C80.4007 89.7087 87.696 91.2181 91.26 96.6477Z" fill="#FF8300"/>
<path d="M87.2968 99.5146C89.4486 102.793 88.5328 107.197 85.2512 109.351C81.9696 111.505 77.5649 110.594 75.413 107.315C73.2611 104.037 74.1769 99.6332 77.4586 97.4791C80.7402 95.3251 85.1449 96.2364 87.2968 99.5146Z" fill="#F9C009"/>
<path d="M47.7158 51.8227C50.8047 56.5284 49.4901 62.8496 44.7796 65.9416C40.0691 69.0337 33.7465 67.7255 30.6577 63.0199C27.5688 58.3142 28.8834 51.9929 33.5939 48.9009C38.3044 45.8089 44.627 47.117 47.7158 51.8227Z" fill="#FF8300"/>
<path d="M44.281 54.3074C46.1459 57.1486 45.3522 60.9652 42.5082 62.832C39.6641 64.6989 35.8467 63.9091 33.9817 61.068C32.1168 58.2268 32.9105 54.4102 35.7545 52.5433C38.5986 50.6764 42.416 51.4663 44.281 54.3074Z" fill="#F9C009"/>
<path d="M60.3715 66.3356C62.4308 69.4727 61.5544 73.6868 58.4141 75.7482C55.2737 77.8095 51.0587 76.9374 48.9994 73.8003C46.9402 70.6632 47.8166 66.449 50.9569 64.3877C54.0972 62.3264 58.3123 63.1984 60.3715 66.3356Z" fill="#FF8300"/>
<path d="M58.0816 67.992C59.325 69.8861 58.7958 72.4305 56.8998 73.6751C55.0037 74.9197 52.4588 74.3932 51.2155 72.4991C49.9722 70.6049 50.5013 68.0605 52.3973 66.816C54.2934 65.5714 56.8383 66.0979 58.0816 67.992Z" fill="#F9C009"/>
<path d="M77.7236 73.7017C79.7828 76.8388 78.9064 81.0529 75.7661 83.1143C72.6258 85.1756 68.4107 84.3035 66.3515 81.1664C64.2923 78.0293 65.1687 73.8151 68.309 71.7538C71.4493 69.6925 75.6644 70.5645 77.7236 73.7017Z" fill="#FF8300"/>
<path d="M75.4337 75.3581C76.677 77.2522 76.1479 79.7966 74.2518 81.0412C72.3558 82.2858 69.8108 81.7593 68.5675 79.8652C67.3242 77.9711 67.8534 75.4266 69.7494 74.1821C71.6454 72.9375 74.1904 73.464 75.4337 75.3581Z" fill="#F9C009"/>
<path d="M102.483 79.957C104.542 83.0942 103.666 87.3083 100.525 89.3697C97.3851 91.431 93.17 90.5589 91.1108 87.4218C89.0515 84.2847 89.9279 80.0705 93.0683 78.0092C96.2086 75.9479 100.424 76.8199 102.483 79.957Z" fill="#FF8300"/>
<path d="M100.193 81.6135C101.436 83.5076 100.907 86.052 99.0111 87.2966C97.1151 88.5412 94.5701 88.0146 93.3268 86.1205C92.0835 84.2264 92.6126 81.682 94.5087 80.4374C96.4047 79.1929 98.9497 79.7194 100.193 81.6135Z" fill="#F9C009"/>
<path d="M109.718 101.467C112.094 105.086 111.082 109.949 107.459 112.327C103.835 114.706 98.9719 113.7 96.5959 110.08C94.2199 106.46 95.2311 101.598 98.8545 99.2192C102.478 96.8408 107.342 97.847 109.718 101.467Z" fill="#FF8300"/>
<path d="M107.075 103.378C108.51 105.564 107.899 108.499 105.712 109.935C103.524 111.372 100.587 110.764 99.1529 108.578C97.7183 106.393 98.3288 103.457 100.517 102.021C102.704 100.585 105.641 101.193 107.075 103.378Z" fill="#F9C009"/>
<path d="M69.9294 49.433C71.9886 52.5701 71.1122 56.7843 67.9719 58.8457C64.8316 60.907 60.6165 60.0349 58.5573 56.8978C56.4981 53.7607 57.3745 49.5465 60.5148 47.4852C63.6551 45.4238 67.8702 46.2959 69.9294 49.433Z" fill="#FF8300"/>
<path d="M67.6395 51.0895C68.8828 52.9836 68.3537 55.528 66.4576 56.7726C64.5616 58.0172 62.0166 57.4906 60.7733 55.5965C59.53 53.7024 60.0592 51.158 61.9552 49.9134C63.8513 48.6689 66.3962 49.1954 67.6395 51.0895Z" fill="#F9C009"/>
<path d="M21.9959 19.3141C24.1344 22.5719 23.2242 26.9481 19.9631 29.0887C16.702 31.2294 12.3249 30.3237 10.1864 27.066C8.048 23.8082 8.9581 19.4319 12.2192 17.2913C15.4803 15.1507 19.8575 16.0563 21.9959 19.3141Z" fill="#FF8300"/>
<path d="M19.6179 21.0343C20.9091 23.0012 20.3596 25.6435 18.3906 26.9359C16.4217 28.2284 13.7788 27.6816 12.4877 25.7147C11.1966 23.7477 11.7461 21.1054 13.715 19.813C15.684 18.5205 18.3268 19.0673 19.6179 21.0343Z" fill="#F9C009"/>
<path d="M25.2011 36.5917C27.3396 39.8494 26.4294 44.2257 23.1683 46.3663C19.9073 48.5069 15.5301 47.6013 13.3916 44.3435C11.2532 41.0858 12.1633 36.7095 15.4244 34.5689C18.6855 32.4283 23.0627 33.3339 25.2011 36.5917Z" fill="#FF8300"/>
<path d="M22.8231 38.3118C24.1143 40.2788 23.5648 42.9211 21.5958 44.2135C19.6269 45.506 16.984 44.9592 15.6929 42.9922C14.4018 41.0253 14.9513 38.383 16.9202 37.0905C18.8892 35.7981 21.532 36.3449 22.8231 38.3118Z" fill="#F9C009"/>
</g>
<path d="M47.3999 88.1805C42.1801 84.4781 35.2675 76.308 35.2675 76.308L43.2154 80.3891C43.2154 80.3891 48.5117 83.5329 52.2398 84.6936C56.1392 85.9076 58.055 85.5256 62.5772 86.2765C65.6523 86.7871 67.8169 87.1763 70.0308 89.1324C70.9688 89.9612 70.8936 91.2142 70.654 92.4427C70.3609 93.9457 68.4812 94.7988 67.1138 95.0765C65.819 95.3394 63.2307 95.2066 59.9312 94.5222C57.4196 94.0012 51.7044 91.2336 47.3999 88.1805Z" fill="#952A00"/>
<path d="M80.2093 62.6148C79.2165 57.7307 74.3319 50.3557 74.3319 50.3557C74.3319 50.3557 78.3198 55.4866 80.3104 58.5191C81.8661 60.8892 84.1989 64.3352 85.3547 66.6759C86.3123 68.6156 86.7653 69.7023 86.8987 71.8613C87.0276 73.9463 86.9769 72.6055 87.0953 74.5217C87.2242 76.6068 86.5031 77.9596 84.8415 78.1708C83.3492 78.3604 82.6887 77.7242 81.6934 76.208C80.5168 74.4155 80.5127 72.6438 80.2915 71.2392C79.811 68.1877 80.8246 65.642 80.2093 62.6148Z" fill="#922B00"/>
<path d="M24.5757 53.8815C23.6203 46.7599 26.6118 40.4571 27.5527 39.5296C28.4935 38.602 34.271 37.5395 38.7087 37.1657C45.6544 36.5807 52.6845 37.4779 56.953 38.5176C61.2214 39.5573 63.369 40.4129 67.1281 42.6865C72.2833 45.8045 83.2963 63.068 83.2963 63.068C83.2963 63.068 73.7897 52.0833 70.9539 50.4034C65.1026 46.9374 60.7151 46.2441 54.0293 45.3958C50.0733 44.8939 45.229 44.786 41.2414 44.8015C37.0242 44.818 34.8442 44.9715 33.0435 45.5336C31.2428 46.0957 34.853 63.8722 37.5346 70.7905C40.2161 77.7087 44.3395 83.9904 47.2643 87.0297C50.1891 90.0689 53.2804 91.0146 57.1352 93.568C57.1352 93.568 51.3333 90.8676 48.544 88.9792C45.7547 87.0908 37.1578 80.2414 32.2748 72.6933C27.9632 66.0284 25.531 61.003 24.5757 53.8815Z" fill="#ED4C00"/>
</svg>
