<?xml version="1.0" standalone="no"?>
<!DOCTYPE svg PUBLIC "-//W3C//DTD SVG 20010904//EN"
 "http://www.w3.org/TR/2001/REC-SVG-20010904/DTD/svg10.dtd">
<svg width="149" height="125" viewBox="0 0 149 125" fill="none" xmlns="http://www.w3.org/2000/svg">
<path d="M25.5834 94.3829C36.0166 87.493 44.8241 85.2716 56.9886 88.1608C64.2996 89.8973 74.0047 97.1442 74.0047 97.1442C74.0047 97.1442 72.8534 103.744 70.911 107.485C65.4702 117.963 56.5751 120.791 44.9836 123.034C30.9575 125.748 6.50744 110 6.50744 110C6.50744 110 17.1735 99.9366 25.5834 94.3829Z" fill="#2F640A"/>
<path d="M24.0074 92.2354C34.0314 84.7627 42.6982 82.0435 55.0074 84.2354C62.4055 85.5528 72.5074 92.2354 72.5074 92.2354C72.5074 92.2354 71.7338 98.89 70.0074 102.735C65.1721 113.506 56.4525 116.836 45.0074 119.735C31.1586 123.243 6.00745 110.235 6.00745 110.235C6.00745 110.235 15.9274 98.259 24.0074 92.2354Z" fill="#2C7F00"/>
<path d="M53.8569 97.3517C53.789 97.4631 53.5734 97.4651 53.3825 97.4234C53.3239 97.4102 53.2828 97.2546 53.2388 97.2393C53.1505 97.2105 53.1257 97.3066 53.0334 97.2667C53.003 97.2526 52.9268 97.0109 52.8971 97.0014C52.7318 96.9526 52.6472 97.06 52.5019 97.0656C51.7927 97.0898 51.1606 97.2628 50.502 97.4215C50.2854 97.4739 49.9495 97.3693 49.78 97.5504C49.7605 97.5716 49.8617 97.7688 49.8643 97.7875C49.9014 98.0751 49.7502 97.6543 49.6792 97.6201C49.3981 97.4854 49.181 97.5556 49.0336 97.7107C48.97 97.7778 49.2197 98.1489 49.0446 97.9554C49.0326 97.9424 48.961 97.7177 48.9297 97.7038C48.8595 97.6723 48.7868 97.7486 48.742 97.7474C48.6557 97.7436 48.6446 97.7509 48.5745 97.7775C48.5727 97.7782 48.5709 97.7788 48.5691 97.7794C48.4743 97.809 48.3174 97.7537 48.2384 97.8428C48.2216 97.8627 48.3419 98.0735 48.3231 98.1255C48.3044 98.1775 48.2042 98.1966 48.1511 98.157C48.0981 98.1173 48.04 97.9366 48.0181 97.8988C47.8341 97.5786 47.922 98.0899 47.9122 98.1074C47.7406 98.4071 47.4225 98.2228 47.1898 98.3153C47.0143 98.3857 46.8578 98.549 46.6871 98.6011C46.4791 98.6639 46.2653 98.6063 46.078 98.702C46.0584 98.7117 46.1833 98.9669 46.1596 98.9793C45.9054 99.1117 45.6285 99.1837 45.2975 99.1044C45.2641 99.0962 45.2107 98.8508 45.1721 98.8288C44.9365 98.6994 44.5103 98.3355 44.7923 99.385C44.6679 99.3865 44.5193 99.3955 44.3443 99.228C44.2317 99.1202 44.1986 98.8437 44.1614 98.9808C44.1529 99.0115 44.2585 99.2251 44.2395 99.2542C44.1593 99.3768 44.0108 99.3498 43.9439 99.5054C43.9305 99.5375 44.0106 99.7343 44.0177 99.7725C44.0725 100.083 43.8057 99.6355 43.7735 99.6078C43.5299 99.4023 43.4611 99.5442 43.3219 99.5885C43.2896 99.5987 43.4262 99.8523 43.3987 99.8717C43.2544 99.9688 43.082 100.006 42.8831 99.945C42.8386 99.9306 42.7861 99.691 42.7605 99.6725C42.6489 99.5936 42.7918 100.03 42.6878 99.9629C42.6661 99.9492 42.6023 99.751 42.5917 99.7306C42.4255 99.4096 42.5652 99.8997 42.5583 99.9143C42.4753 100.108 42.2039 99.6429 42.0985 99.7619C42.0861 99.7767 42.2127 100.011 42.1722 100.037C41.9021 100.214 41.5653 100.261 41.2008 100.171C41.1441 100.158 41.1081 99.9601 41.0968 99.9383C40.9183 99.5982 41.0649 100.088 41.0568 100.112C40.9884 100.284 40.731 99.9231 40.8622 100.523C40.2951 100.507 39.9235 101.009 39.2454 100.681C39.237 100.678 39.16 100.438 39.1437 100.432C38.9471 100.355 39.1099 100.711 39.1795 101.195C39.1967 101.317 38.9189 100.805 38.8974 100.768C38.8185 100.631 38.7121 100.271 38.6934 100.246C38.543 100.05 38.9893 101.203 38.8978 101.238C38.8942 101.237 38.826 101.019 38.8104 101.001C38.7614 100.944 38.7697 101.037 38.7189 100.973C38.602 100.823 38.3706 100.268 38.4142 100.625C38.4202 100.672 38.6838 101.322 38.5903 101.322C38.5525 101.321 38.4146 101.387 38.3596 101.359C38.3036 101.332 38.2505 101.11 38.2442 101.102C38.0283 100.864 38.0258 100.733 37.8133 100.34C37.6014 99.9492 37.9922 100.926 38.0123 101.044C38.0318 101.161 37.8674 100.96 37.8156 100.888C37.7651 100.816 37.7382 100.672 37.7032 100.634C37.4731 100.382 37.8398 101.14 37.862 101.311C37.8949 101.558 37.7769 101.389 37.6558 101.213C37.5785 101.102 37.4998 100.988 37.4575 100.973C37.4279 100.962 37.5105 101.121 37.497 101.144C37.4432 101.233 37.3074 101.025 37.3041 101.267C37.3036 101.306 37.4086 101.769 37.2342 101.468C37.2092 101.425 37.1549 101.237 37.1056 101.21C37.032 101.17 36.928 101.166 36.9013 101.247C36.8817 101.307 37.0472 101.586 36.9619 101.513C36.9239 101.481 36.8913 101.292 36.8257 101.245C36.7584 101.2 36.6573 101.251 36.621 101.273C36.5845 101.296 36.7006 101.511 36.7038 101.527C36.7213 101.621 36.6943 101.76 36.6879 101.763C36.3718 101.93 35.9027 101.692 35.6446 101.966C35.6246 101.987 35.7514 102.21 35.7495 102.216C35.7111 102.353 35.4835 101.707 35.3238 101.531C35.5586 101.995 35.4821 101.927 35.4479 102.007C35.4317 102.046 35.5357 102.219 35.5422 102.239C35.6354 102.534 35.4327 102.194 35.3892 102.125C35.23 101.872 35.3544 102.202 35.2467 102.034C35.1391 101.868 35.0534 101.584 34.9965 101.617C35.064 101.791 35.3244 102.204 35.317 102.296C35.2945 102.64 34.8235 102.457 34.6762 102.494C34.5321 102.528 34.5058 102.582 34.4005 102.565C34.2087 102.535 34.4353 102.821 34.439 103.01C34.4435 103.198 34.031 102.411 33.9224 102.254C33.8136 102.097 33.9007 102.273 33.8326 102.192C33.7643 102.11 33.73 101.98 33.675 101.967C33.6181 101.955 33.6973 102.303 33.79 102.481C33.9852 102.857 34.2565 103.211 34.0902 103.13C34.0802 103.125 33.9741 102.916 33.9423 102.908C33.6928 102.851 33.5292 102.943 33.2882 102.913C33.2548 102.909 33.1294 102.68 33.1081 102.675C32.8862 102.624 33.1772 102.956 33.3836 103.404C33.0334 102.86 32.7698 102.56 32.669 102.626C32.6085 102.665 32.7808 102.889 32.8587 103.078C32.8824 103.135 32.7292 103.006 32.7991 103.119C33.0281 103.49 33.3487 103.858 33.1418 103.769C33.1322 103.764 33.0061 103.562 32.9831 103.561C32.8336 103.553 33.0925 103.927 33.0271 104.044C32.977 104.135 32.6727 104.018 32.5564 104.051C32.1132 103.474 32.1289 103.673 32.4049 104.094C32.3347 104.123 32.2906 104.194 32.1921 104.184C32.1583 104.18 32.0398 104.005 32.0233 103.99C31.7637 103.74 32.0425 104.142 32.0422 104.166C32.0241 104.419 31.6827 104.219 31.7803 104.605C31.7839 104.618 32.0938 105.018 31.8276 104.758C31.8094 104.74 31.7077 104.527 31.6358 104.562C31.5636 104.597 31.2794 104.478 31.3403 104.73C31.3552 104.79 31.5586 105.153 31.3165 104.936C31.2838 104.906 31.1997 104.788 31.1414 104.731C30.9555 104.55 31.2584 104.962 30.9585 104.646C30.6586 104.33 30.3953 104.124 30.4951 104.426C30.4978 104.435 30.7265 104.77 30.6952 104.786C30.6451 104.811 30.5318 104.792 30.4883 104.829C30.4674 104.847 30.6339 105.036 30.6329 105.042C30.6195 105.091 30.5974 105.124 30.5689 105.148L30.5578 105.156C30.4508 105.235 30.27 105.172 30.0982 105.195C30.0584 105.2 30.1615 105.544 29.953 105.357C29.7249 105.152 29.1057 104.082 29.1254 104.421C29.1327 104.557 29.9156 105.917 29.3648 105.307C29.2656 105.612 28.8495 105.385 28.7935 105.76C28.7913 105.776 28.9938 106.165 28.9683 106.175C28.9299 106.187 28.8033 106.026 28.7721 106.029C28.6408 106.039 28.6419 106.245 28.5319 106.281C28.4902 106.296 28.3918 106.108 28.3414 106.126C28.2919 106.143 28.4104 106.397 28.2809 106.32C28.182 106.261 27.8349 105.808 27.7395 105.79C28.0375 106.265 27.9901 106.281 27.9983 106.451C28.0001 106.484 28.12 106.639 28.1263 106.663C28.155 106.764 28.0428 106.644 28.0779 106.752C28.0862 106.778 28.1901 106.939 28.203 106.969C28.3161 107.232 28.0147 106.914 27.9611 106.86C27.7581 106.653 27.8768 106.874 27.7799 106.804C27.6826 106.735 27.654 106.584 27.575 106.556C27.4831 106.525 27.4129 106.544 27.3532 106.578L27.3428 106.586C27.2964 106.616 27.2581 106.654 27.2195 106.682C27.1859 106.709 27.377 106.881 27.3761 106.89C27.3567 106.993 27.1073 106.853 27.4213 107.257C26.4771 106.337 27.4716 107.384 27.2053 107.275C27.1839 107.266 26.7416 106.827 26.7058 106.735C26.6703 106.642 26.8466 106.743 26.7882 106.602C26.7737 106.57 26.4327 106.091 26.4179 106.056C26.2962 105.793 26.9288 106.476 26.9654 106.512C27.3672 106.892 27.0176 106.363 27.011 106.312C27.0009 106.258 27.003 106.218 27.0117 106.188L27.0425 106.163C27.078 106.065 27.1675 106.063 27.1662 105.932C27.1652 105.822 26.8289 105.313 26.8824 105.3C27.0593 105.256 27.5613 105.944 27.2856 105.246C27.2267 105.097 26.8444 104.55 27.2184 104.934C27.2421 104.958 27.5658 105.32 27.4435 105.039C27.4281 105.003 27.3247 104.839 27.3226 104.821C27.3093 104.705 27.4216 104.817 27.428 104.726C27.4357 104.634 27.4325 104.505 27.5199 104.528C27.572 104.542 27.8053 104.823 27.8668 104.889C28.0446 105.078 27.8682 104.695 28.0584 104.941C28.2502 105.187 28.4485 105.619 28.6259 105.744C28.36 105.316 28.0901 104.874 27.824 104.442C27.9836 104.363 28.2176 104.407 28.3544 104.293C28.3711 104.278 28.2056 104.062 28.2197 104.041C28.2789 103.952 28.4557 104.068 28.4999 103.947C28.5323 103.853 28.4471 103.566 28.4754 103.461C28.8348 103.915 28.8293 103.684 28.9318 103.678C28.9679 103.676 29.0522 103.805 29.0986 103.835C29.2713 103.943 28.9545 103.541 28.9286 103.462C28.8185 103.123 29.4703 104.076 29.5528 103.985C29.5577 103.981 29.2726 103.43 29.2594 103.393C29.1724 103.15 29.3893 103.564 29.4492 103.578C29.4595 103.58 29.47 103.583 29.4806 103.586L29.4205 103.63C29.5208 103.658 29.6243 103.711 29.5862 103.534C29.5736 103.477 29.3863 103.137 29.6066 103.341C29.6355 103.368 29.7576 103.531 29.769 103.537C29.9656 103.635 29.5741 103.13 29.482 102.927C29.3899 102.724 29.7279 103.019 29.821 103.108C30.0609 103.337 29.8812 103.24 29.8995 103.266C30.1156 103.585 30.123 103.495 30.1806 103.491C30.5761 103.977 30.6056 103.905 30.2386 103.484C30.1985 103.438 30.2059 103.507 30.1806 103.491C29.8307 102.983 29.8364 102.878 30.2597 103.275C30.458 103.461 30.6263 103.729 30.6454 103.566C30.6543 103.492 30.3678 103.169 30.3305 103.048C30.2454 102.772 30.6075 102.997 30.6557 102.877C30.6732 102.833 30.494 102.674 30.501 102.638C30.519 102.541 30.6818 102.638 30.6844 102.519C30.6844 102.508 30.5169 102.326 30.5335 102.309C30.6571 102.173 30.8807 102.198 31.0366 102.083C31.1116 102.027 31.1646 101.815 31.2603 101.778C31.427 101.71 31.8096 101.876 31.8774 101.721C31.9235 101.62 31.7645 101.43 31.7021 101.268C31.5816 100.953 32.0349 101.352 32.1008 101.416C32.1029 101.419 32.0665 101.514 32.1751 101.594C32.3455 101.798 32.1006 101.418 32.1008 101.416C32.1438 101.458 32.3121 101.412 32.3142 101.354C32.315 101.323 32.1772 101.133 32.1802 101.12C32.2514 100.821 32.4185 100.645 32.6716 100.619C32.6775 100.621 32.8086 100.848 32.8207 100.85C32.9935 100.881 32.9004 100.564 32.8999 100.344C32.9003 100.123 33.0101 100.134 33.287 100.494C33.33 100.404 33.5313 100.52 33.6456 100.595C33.7609 100.67 33.5256 100.217 33.5261 100.205C33.5393 99.8311 33.7685 100.04 33.9605 99.9925C34.0488 99.9722 34.1785 99.8241 34.2405 99.7315C34.2893 99.6573 34.3834 99.7445 34.4144 99.6445C34.4187 99.6311 34.3111 99.4309 34.31 99.4217C34.2651 99.1416 34.4708 99.659 34.5286 99.7412C34.7396 100.04 34.8504 100.2 34.8677 100.004C34.8712 99.9595 34.5937 99.2066 34.6142 99.1456C34.6405 99.068 34.7426 99.3365 34.7654 99.2496C34.7675 99.2424 34.6926 99.0822 34.7282 99.0745C34.8926 99.0363 35.1028 99.0551 35.2509 98.9711C35.2718 98.9601 35.1319 98.7152 35.1605 98.695C35.2979 98.5989 35.4579 98.5421 35.654 98.6025C35.7024 98.6183 35.7555 98.8089 35.7856 98.8595C35.9691 99.1652 35.8356 98.6658 35.8434 98.6521C36.0082 98.3229 36.3659 98.6569 36.5563 98.3761C36.5595 98.371 36.5627 98.3658 36.5658 98.3603C36.5743 98.343 36.4824 97.7895 36.7002 98.2106C36.7149 98.2385 36.9353 98.6703 36.8595 98.3463C36.8545 98.3261 36.7366 98.1055 36.7964 98.1096C36.8556 98.114 36.8783 97.9278 37.0465 98.1555C37.0996 98.2272 37.3243 98.6562 37.2526 98.2733C37.2471 98.2468 37.0413 97.3977 37.2903 97.9429C37.3312 98.0327 37.5489 98.627 37.5138 98.2934C37.5066 98.2288 37.4297 98.107 37.4377 98.0097C37.4495 97.86 37.5893 97.9884 37.5651 97.6962C37.5603 97.6447 37.4666 97.221 37.6245 97.51C37.6494 97.5552 37.7107 97.7579 37.7422 97.7713C37.8916 97.8363 37.962 97.659 38.1244 97.7543C38.1821 97.7876 38.2814 98.1152 38.3549 98.1854C38.4283 98.2557 38.5431 98.3068 38.5326 98.1441C38.5218 97.9815 38.2845 97.4889 38.3339 97.424C38.5504 97.1414 38.9452 97.3356 39.2421 97.2755C39.2864 97.2665 39.184 97.0967 39.2447 97.0703C39.4675 96.9724 39.796 96.6564 40.1373 96.9717C40.4093 97.2247 40.2987 97.5345 40.4656 97.6168C40.5459 97.6557 40.3898 97.0387 40.397 97.0148C40.4647 96.7741 40.6564 97.0022 40.7501 96.876C40.7694 96.8498 40.6556 96.6184 40.673 96.5988C40.7318 96.5297 40.8494 96.6083 40.9126 96.5627C40.9408 96.5416 40.8672 96.36 40.9016 96.3634C40.9831 96.3695 41.0734 96.4239 41.2051 96.571C41.2172 96.5844 41.2597 96.8286 41.3145 96.818C41.4028 96.8003 41.5693 96.9319 41.6006 96.7209C41.6096 96.6576 41.4555 96.2371 41.624 96.5045C41.6592 96.5604 41.8293 97.0708 41.7395 96.6086C41.7248 96.5318 41.6272 95.8997 41.8261 96.2569C41.8785 96.3508 42.0707 96.7488 42.081 96.6713C42.0818 96.6592 41.9797 96.4406 41.9999 96.4081C42.0727 96.2974 42.1864 96.2827 42.2626 96.174C42.2828 96.1446 42.1556 95.9263 42.1884 95.8899C42.2787 95.7893 42.4409 95.7966 42.5774 95.829C42.6278 95.8414 42.6718 96.045 42.6826 96.065C42.857 96.3895 42.7135 95.9173 42.7191 95.8845C42.7568 95.687 42.9117 95.8762 42.9799 95.7854C42.9989 95.761 42.8993 95.5474 42.8969 95.526C42.8763 95.3153 42.9858 95.7246 43.0345 95.7561C43.1715 95.8454 43.2661 95.7899 43.3468 95.7277C43.3764 95.7045 43.2432 95.4635 43.2708 95.4456C43.4338 95.3345 43.6263 95.2901 43.8542 95.3646C43.897 95.3792 43.9505 95.5832 43.9742 95.6254C44.1395 95.9212 44.0468 95.4676 44.0471 95.421C44.0479 95.2081 44.1426 95.3706 44.1939 95.3141C44.4414 95.0361 44.8683 95.0046 45.1847 94.9635C45.5965 94.909 45.9621 94.9801 46.2979 94.7901C46.3191 94.7784 46.1929 94.5284 46.2098 94.515C46.4349 94.3523 46.7167 94.3554 46.9288 94.1794C46.9461 94.1655 46.8158 93.9334 46.8399 93.903C46.8589 93.8779 46.8834 93.8596 46.9117 93.8498C46.9612 93.8322 47.0204 93.8349 47.0827 93.8642C47.1325 93.8874 47.1753 94.1157 47.2236 94.1347C47.3363 94.1794 47.4268 94.1616 47.4939 94.0871C47.5216 94.0551 47.3634 93.8284 47.4075 93.8063C47.7036 93.6517 47.9863 93.4807 48.4349 93.6694C48.4656 93.6825 48.6997 94.1802 48.7038 94.0637C48.6472 93.922 48.5762 93.7572 48.5134 93.6067C48.9271 93.3335 49.4419 93.3183 49.8999 93.1501C49.9194 93.1428 49.7699 92.8903 49.8069 92.875C50.019 92.7869 50.1904 92.6234 50.5241 92.7927C50.5571 92.8091 50.7532 93.2827 50.7845 93.1842C50.7881 93.1672 50.8598 93.0609 50.8382 92.9488C50.8347 92.932 50.7211 92.7207 50.7485 92.701C50.9127 92.5889 51.1274 92.5537 51.3736 92.606C51.4129 92.6151 51.4827 92.8625 51.5117 92.8709C51.7202 92.9279 51.8174 92.675 52.0852 92.8173C52.2658 92.9137 52.3805 93.3418 52.5938 93.7245C52.6226 93.7788 52.7001 93.7612 52.7867 93.9982C53.0018 94.5947 53.2077 95.2583 53.4418 95.8924C53.4938 96.0284 53.4746 95.8694 53.5689 96.2088C53.576 96.2312 53.5908 96.3497 53.6244 96.4646C53.6483 96.5437 53.744 96.7818 53.7725 96.8838C53.8022 96.9853 53.7151 96.7884 53.7415 96.9113C53.7675 97.036 53.8847 97.3033 53.8569 97.3517ZM34.16 100.931C34.3261 101.12 33.9167 100.322 33.9588 100.542C33.9614 100.554 34.1517 100.922 34.16 100.931ZM28.5804 104.978C28.8539 105.273 28.583 104.756 28.3751 104.526C28.1681 104.296 28.4977 104.889 28.5804 104.978ZM28.0944 105.626C28.3328 105.845 27.6697 104.759 27.7277 105.026C27.7309 105.041 28.0805 105.613 28.0944 105.626ZM52.3767 93.9432C52.3822 93.9538 52.4322 93.9458 52.4286 93.9345C52.3455 93.6605 52.2434 93.6777 52.3767 93.9432ZM27.6149 106.304C27.733 106.432 27.6896 106.223 27.544 106.063C27.4266 105.934 27.467 106.145 27.6149 106.304ZM37.2959 100.566C37.3015 100.578 37.3368 100.577 37.3087 100.507C37.2182 100.281 37.1999 100.362 37.2959 100.566ZM26.6029 107.197C26.7739 107.094 27.5908 107.765 27.3642 107.822C27.3228 107.833 27.1845 107.529 27.0844 107.494C26.9009 107.433 27.3265 107.941 27.0136 107.754C26.9564 107.719 26.5915 107.201 26.6021 107.196C26.6024 107.196 26.6026 107.197 26.6029 107.197ZM34.6924 101.868C34.6989 101.878 34.744 101.867 34.7396 101.857C34.6293 101.593 34.5371 101.615 34.6924 101.868ZM39.2724 100.409C39.2835 100.432 39.3905 100.417 39.3857 100.394C39.2746 99.9385 39.0573 99.967 39.2724 100.409ZM32.5432 104.037C32.6805 104.293 32.6573 104.354 32.4053 104.094C32.4546 104.08 32.4943 104.053 32.5432 104.037Z" fill="#2F640A"/>
<path d="M28.4514 117.494C25.1241 116.94 24.3607 115.698 24.4662 114.285C24.5761 112.813 28.5967 113.407 32.0366 114.103C35.3303 114.769 37.3675 115.232 36.9631 116.585C36.5759 117.881 31.6254 118.022 28.4514 117.494Z" fill="#349400"/>
<path d="M131.46 101.572C128.554 97.9762 123.864 95.8576 116.89 93.0648C113.891 91.8638 105.546 92.4421 105.546 92.4421L96.8586 105.059C96.8586 105.059 101.914 117.128 108.826 119.866C114.773 122.221 119.523 122.989 125.917 122.839C133.98 122.649 147.172 117.55 147.172 117.55C147.172 117.55 137.069 108.511 131.46 101.572Z" fill="#2F640A"/>
<path d="M133.787 99.6915C130.88 96.0956 126.191 93.9769 119.217 91.1841C116.218 89.9832 107.873 90.5614 107.873 90.5614L99.1854 103.178C99.1854 103.178 104.241 115.247 111.153 117.985C117.1 120.341 121.85 121.109 128.244 120.958C136.307 120.768 148.148 117.46 148.148 117.46L133.787 99.6915Z" fill="#2C7F00"/>
<path d="M133.885 117.402C130.512 117.429 129.546 116.337 129.407 114.926C129.262 113.458 133.325 113.351 136.833 113.445C140.192 113.534 142.279 113.64 142.113 115.043C141.955 116.386 137.102 117.376 133.885 117.402Z" fill="#349400"/>
<path d="M105.603 94.1248C105.886 93.9768 106.213 94.134 106.441 94.3502C106.512 94.4172 106.467 94.7077 106.516 94.7672C106.609 94.8832 106.704 94.7434 106.792 94.8818C106.821 94.9292 106.765 95.3892 106.795 95.4282C106.961 95.6389 107.129 95.5293 107.296 95.6368C108.113 96.168 108.889 96.4142 109.686 96.726C109.949 96.8285 110.216 97.2885 110.52 97.1496C110.556 97.133 110.598 96.7293 110.609 96.6973C110.617 96.6742 110.625 96.654 110.632 96.6364C110.774 96.2815 110.632 97.0164 110.677 97.1285C110.868 97.5931 111.129 97.6768 111.389 97.565C111.5 97.5164 111.546 96.7064 111.564 97.1691C111.565 97.2003 111.463 97.6192 111.481 97.6692C111.522 97.7817 111.652 97.7278 111.691 97.7698C111.767 97.8531 111.785 97.8522 111.866 97.8726C111.979 97.9046 112.073 98.1404 112.215 98.0684C112.244 98.0516 112.294 97.6118 112.349 97.5459C112.404 97.4801 112.506 97.5379 112.524 97.6473C112.54 97.7565 112.459 98.094 112.45 98.1733C112.375 98.8422 112.678 97.9542 112.699 97.9349C113.066 97.6071 113.214 98.1747 113.489 98.2255C113.696 98.2629 113.953 98.1335 114.141 98.1931C114.372 98.267 114.526 98.5386 114.76 98.5396C114.785 98.5403 114.85 98.0247 114.881 98.0245C115.2 98.0214 115.502 98.1328 115.749 98.5319C115.774 98.5724 115.655 99.014 115.676 99.0813C115.806 99.4843 115.955 100.423 116.404 98.4874C116.517 98.5854 116.666 98.6919 116.713 99.1052C116.744 99.3714 116.59 99.8486 116.716 99.6552C116.745 99.6121 116.79 99.179 116.827 99.1469C116.984 99.012 117.106 99.1755 117.27 98.975C117.304 98.9333 117.361 98.5479 117.379 98.48C117.534 97.93 117.487 98.8736 117.499 98.9447C117.589 99.475 117.747 99.2978 117.91 99.3367C117.947 99.3459 117.986 98.8223 118.025 98.8126C118.218 98.7679 118.411 98.8442 118.555 99.102C118.587 99.1606 118.481 99.5948 118.493 99.6454C118.546 99.8629 118.696 99.0346 118.75 99.2272C118.762 99.2668 118.693 99.642 118.69 99.6839C118.638 100.341 118.826 99.4278 118.842 99.4095C119.049 99.1573 118.999 100.134 119.178 100.022C119.2 100.008 119.231 99.5244 119.287 99.5133C119.658 99.4356 120.008 99.6228 120.299 100.057C120.345 100.123 120.252 100.476 120.249 100.521C120.203 101.22 120.377 100.3 120.4 100.268C120.407 100.26 120.413 100.253 120.419 100.247C120.598 100.095 120.616 100.799 120.903 99.7579C121.493 100.253 122.319 99.8124 122.659 100.958C122.663 100.972 122.516 101.409 122.525 101.433C122.631 101.736 122.804 101.041 123.198 100.247C123.299 100.048 123.069 101.085 123.051 101.161C122.992 101.442 122.747 102.083 122.739 102.139C122.68 102.577 123.383 100.421 123.502 100.461C123.504 100.466 123.354 100.856 123.351 100.898C123.338 101.032 123.421 100.885 123.403 101.03C123.361 101.368 123.017 102.414 123.327 101.844C123.367 101.77 123.779 100.551 123.861 100.645C123.893 100.683 124.08 100.729 124.1 100.826C124.12 100.922 123.94 101.297 123.938 101.315C123.874 101.877 123.744 102.071 123.516 102.852C123.285 103.63 123.963 101.825 124.067 101.634C124.171 101.445 124.101 101.903 124.065 102.058C124.03 102.213 123.905 102.447 123.893 102.537C123.808 103.129 124.304 101.671 124.463 101.405C124.841 100.776 124.388 102.136 124.426 102.303C124.437 102.348 124.541 102.039 124.575 102.02C124.711 101.951 124.592 102.384 124.854 102.051C124.896 101.997 125.32 101.243 125.125 101.846C125.096 101.933 124.933 102.251 124.94 102.34C124.949 102.475 125.019 102.59 125.128 102.508C125.208 102.447 125.394 101.888 125.377 102.079C125.369 102.165 125.184 102.458 125.18 102.593C125.176 102.727 125.302 102.767 125.351 102.776C125.401 102.785 125.56 102.368 125.576 102.343C125.669 102.196 125.845 102.04 125.853 102.044C126.27 102.175 126.303 103.021 126.78 102.974C126.817 102.971 127.001 102.539 127.009 102.534C127.195 102.405 126.574 103.492 126.461 103.901C126.865 103.038 126.831 103.213 126.946 103.153C127.002 103.123 127.145 102.783 127.165 102.75C127.46 102.27 127.179 102.939 127.123 103.076C126.917 103.582 127.235 103.021 127.098 103.359C126.961 103.694 126.676 104.151 126.745 104.177C126.913 103.88 127.254 103.054 127.368 102.949C127.802 102.553 127.849 103.356 127.97 103.497C128.09 103.637 128.167 103.605 128.202 103.76C128.262 104.038 128.497 103.417 128.732 103.195C128.966 102.974 128.194 104.407 128.053 104.728C127.911 105.048 128.087 104.733 128.019 104.914C127.951 105.095 127.807 105.289 127.816 105.374C127.825 105.459 128.213 104.957 128.391 104.637C128.766 103.958 129.077 103.204 129.059 103.514C129.059 103.515 129.059 103.517 129.058 103.518L129.106 103.544C129.102 103.554 129.086 103.581 129.066 103.617L129.02 103.594C128.975 103.681 128.902 103.819 128.869 103.899L128.903 103.916C128.891 103.944 128.883 103.964 128.884 103.974C128.915 104.365 129.099 104.49 129.143 104.849C129.149 104.899 128.894 105.302 128.895 105.335C128.899 105.686 129.236 104.955 129.758 104.226C129.158 105.25 128.849 105.908 128.961 105.98C129.028 106.023 129.271 105.565 129.496 105.273C129.564 105.185 129.438 105.522 129.567 105.315C129.99 104.639 130.383 103.837 130.33 104.215C130.327 104.233 130.094 104.602 130.099 104.635C130.132 104.853 130.56 104.138 130.739 104.124C130.88 104.113 130.805 104.657 130.878 104.794C130.208 105.947 130.467 105.744 130.972 104.974C131.027 105.05 131.133 105.051 131.14 105.203C131.143 105.254 130.932 105.579 130.914 105.616C130.631 106.209 131.114 105.455 131.148 105.434C131.493 105.241 131.289 105.908 131.789 105.433C131.807 105.416 132.288 104.624 131.988 105.232C131.967 105.274 131.698 105.605 131.759 105.679C131.819 105.753 131.71 106.266 132.036 105.96C132.115 105.886 132.566 105.279 132.317 105.815C132.283 105.888 132.14 106.112 132.074 106.245C131.865 106.669 132.363 105.875 131.993 106.581C131.623 107.287 131.395 107.845 131.783 107.438C131.795 107.426 132.202 106.805 132.23 106.835C132.274 106.884 132.269 107.062 132.328 107.092C132.356 107.106 132.577 106.701 132.586 106.696C132.9 106.584 132.816 107.013 132.916 107.283C132.932 107.332 133.363 106.859 133.171 107.324C132.962 107.834 131.705 109.718 132.155 109.361C132.335 109.218 133.928 106.828 133.272 108.171C133.707 108.006 133.525 108.79 134.044 108.495C134.067 108.482 134.529 107.825 134.548 107.85C134.577 107.89 134.398 108.219 134.411 108.257C134.443 108.361 134.567 108.321 134.67 108.302C134.734 108.292 134.791 108.29 134.821 108.331C134.852 108.373 134.629 108.69 134.666 108.739C134.702 108.788 135.013 108.382 134.945 108.631C134.891 108.82 134.373 109.727 134.368 109.869C134.936 109.012 134.968 109.058 135.199 108.886C135.244 108.852 135.425 108.543 135.456 108.511C135.588 108.378 135.45 108.642 135.591 108.495C135.625 108.46 135.82 108.168 135.859 108.122C136.194 107.724 135.837 108.436 135.773 108.558C135.534 109.027 135.812 108.664 135.737 108.862C135.662 109.059 135.458 109.232 135.434 109.366C135.384 109.644 135.536 109.679 135.624 109.759C135.661 109.789 135.899 109.385 135.91 109.38C136.056 109.336 135.86 109.805 136.424 109.06C135.137 111.103 136.603 108.898 136.444 109.37C136.43 109.408 135.835 110.382 135.702 110.497C135.569 110.61 135.705 110.272 135.508 110.455C135.462 110.498 134.791 111.336 134.745 111.382C134.382 111.748 135.337 110.334 135.386 110.254C135.915 109.391 135.185 110.288 135.118 110.339C134.817 110.575 134.874 110.323 134.651 110.486C134.504 110.59 133.876 111.514 133.856 111.46C133.794 111.282 134.61 109.952 133.74 110.997C133.555 111.221 132.911 112.258 133.345 111.394C133.373 111.341 133.784 110.56 133.439 110.998C133.396 111.054 133.202 111.352 133.179 111.373C133.031 111.507 133.153 111.248 133.032 111.332C132.91 111.414 132.742 111.547 132.751 111.41C132.754 111.374 132.815 111.24 132.889 111.089C132.985 110.897 133.101 110.676 133.141 110.593C133.346 110.17 132.883 110.784 133.158 110.288C133.433 109.788 133.955 109.095 134.072 108.735C133.575 109.514 133.061 110.312 132.559 111.095C132.41 110.962 132.402 110.604 132.208 110.532C132.184 110.524 131.943 110.959 131.91 110.962C131.774 110.97 131.876 110.616 131.702 110.675C131.566 110.721 131.206 111.118 131.056 111.181C131.561 110.25 131.251 110.481 131.215 110.346C131.201 110.298 131.35 110.058 131.376 109.966C131.471 109.624 131.023 110.447 130.924 110.559C130.502 111.037 131.592 109.222 131.449 109.197C131.442 109.195 130.783 110.115 130.736 110.169C130.434 110.521 130.929 109.826 130.931 109.73C130.936 109.555 131.022 109.293 130.764 109.523C130.688 109.591 130.265 110.157 130.495 109.661C130.525 109.596 130.721 109.279 130.727 109.257C130.819 108.888 130.214 109.891 129.956 110.199C129.698 110.507 130.03 109.763 130.132 109.553C130.396 109.008 130.298 109.352 130.331 109.302C130.721 108.715 130.597 108.782 130.581 108.703C131.162 107.712 131.06 107.732 130.561 108.625C130.506 108.722 130.598 108.652 130.581 108.703C129.962 109.646 129.817 109.728 130.275 108.775C130.49 108.329 130.819 107.855 130.597 107.968C130.497 108.019 130.114 108.711 129.959 108.87C129.604 109.232 129.845 108.517 129.678 108.554C129.618 108.568 129.436 108.963 129.387 108.985C129.258 109.045 129.36 108.729 129.205 108.831C129.191 108.841 128.978 109.241 128.953 109.233C128.76 109.182 128.762 108.846 128.592 108.739C128.51 108.687 128.235 108.818 128.173 108.724C128.066 108.565 128.206 107.887 127.998 107.953C127.864 107.995 127.659 108.4 127.471 108.648C127.109 109.131 127.514 108.129 127.578 107.974C127.58 107.969 127.705 107.916 127.78 107.692C127.994 107.256 127.579 107.973 127.578 107.974C127.619 107.874 127.526 107.704 127.455 107.764C127.416 107.797 127.216 108.177 127.2 108.187C126.885 108.38 126.664 108.405 126.547 108.246L126.677 108.313C126.65 108.282 126.626 108.242 126.607 108.196C126.607 108.186 126.826 107.759 126.824 107.742C126.798 107.49 126.461 107.979 126.206 108.242C125.951 108.505 125.927 108.363 126.234 107.594C126.113 107.65 126.168 107.271 126.205 107.042C126.242 106.813 125.819 107.648 125.805 107.662C125.377 108.11 125.517 107.582 125.382 107.423C125.318 107.346 125.097 107.389 124.965 107.438C124.859 107.479 124.913 107.261 124.789 107.357C124.772 107.37 124.6 107.749 124.59 107.762C124.304 108.177 124.78 107.276 124.844 107.106C125.078 106.484 125.196 106.15 124.97 106.387C124.918 106.441 124.226 107.735 124.152 107.795C124.057 107.87 124.301 107.404 124.195 107.495C124.186 107.502 124.048 107.795 124.023 107.767C123.905 107.643 123.828 107.399 123.665 107.359C123.644 107.353 123.454 107.832 123.42 107.83C123.259 107.823 123.122 107.74 123.089 107.462C123.082 107.392 123.249 107.072 123.285 106.972C123.504 106.361 123.063 107.193 123.046 107.206C122.63 107.516 122.785 106.657 122.394 106.935C122.371 106.951 121.9 107.847 122.179 107.029C122.199 106.974 122.481 106.135 122.22 106.682C122.204 106.717 122.064 107.15 122.035 107.089C122.006 107.028 121.826 107.284 121.942 106.793C121.979 106.639 122.24 105.795 121.934 106.431C121.91 106.474 121.277 107.935 121.621 106.893C121.678 106.722 122.077 105.632 121.804 106.166C121.752 106.27 121.689 106.523 121.6 106.662C121.465 106.879 121.496 106.561 121.267 107.028C121.225 107.111 120.931 107.843 121.084 107.264C121.108 107.173 121.241 106.809 121.235 106.761C121.205 106.533 121.029 106.749 121.014 106.464C121.007 106.363 121.207 105.769 121.217 105.597C121.229 105.425 121.195 105.247 121.077 105.511C120.96 105.776 120.727 106.747 120.653 106.809C120.338 107.081 120.271 106.461 120.057 106.329C120.026 106.31 119.981 106.665 119.932 106.662C119.805 106.655 119.598 106.789 119.473 106.612C119.376 106.529 119.299 106.386 119.26 106.148C119.158 105.518 119.468 105.097 119.359 104.83C119.306 104.703 119.058 105.839 119.035 105.872C118.811 106.214 118.769 105.688 118.596 105.821C118.56 105.848 118.52 106.318 118.49 106.336C118.389 106.403 118.324 106.181 118.23 106.205C118.188 106.217 118.14 106.573 118.108 106.54C118.032 106.466 117.979 106.305 117.949 105.959C117.946 105.928 118.065 105.494 118.006 105.468C117.908 105.427 117.829 105.078 117.659 105.399C117.608 105.495 117.478 106.306 117.492 105.734C117.495 105.614 117.669 104.644 117.45 105.472C117.413 105.609 117.082 106.72 117.127 105.977C117.138 105.781 117.217 104.977 117.155 105.096C117.147 105.115 117.099 105.554 117.058 105.591C116.915 105.713 116.789 105.645 116.641 105.761C116.601 105.793 116.578 106.251 116.521 106.284C116.366 106.376 116.208 106.232 116.096 106.069C116.055 106.008 116.151 105.641 116.154 105.6C116.205 104.93 116.024 105.815 115.996 105.864C115.824 106.155 115.798 105.721 115.669 105.813C115.634 105.837 115.584 106.265 115.571 106.302C115.446 106.661 115.621 105.907 115.596 105.816C115.527 105.56 115.39 105.571 115.268 105.606C115.223 105.62 115.186 106.12 115.146 106.126C114.909 106.173 114.688 106.086 114.514 105.776C114.482 105.717 114.574 105.343 114.581 105.255C114.629 104.64 114.399 105.45 114.365 105.525C114.212 105.868 114.234 105.527 114.144 105.575C113.7 105.817 113.258 105.508 112.919 105.303C112.474 105.038 112.175 104.608 111.712 104.616C111.683 104.616 111.614 105.123 111.588 105.13C111.249 105.19 110.981 104.934 110.652 105.022C110.625 105.028 110.57 105.511 110.523 105.537C110.428 105.594 110.333 105.549 110.282 105.382C110.257 105.302 110.386 104.902 110.359 104.83C110.297 104.659 110.207 104.607 110.102 104.667C110.057 104.694 110.026 105.192 109.976 105.189C109.739 105.181 109.52 105.195 109.352 104.986C109.266 104.89 109.186 104.747 109.112 104.535C109.096 104.488 109.216 103.487 109.139 103.672C109.098 103.948 109.053 104.274 109.011 104.57C108.521 104.665 108.089 104.266 107.609 104.17C107.589 104.167 107.578 104.702 107.54 104.697C107.316 104.67 107.094 104.802 106.899 104.259C106.879 104.206 106.946 103.269 106.869 103.406C106.855 103.432 106.746 103.551 106.709 103.754C106.704 103.784 106.7 104.223 106.668 104.234C106.479 104.292 106.297 104.185 106.128 103.913C106.101 103.869 106.14 103.403 106.12 103.367C105.977 103.116 105.826 103.471 105.709 103.049C105.628 102.765 105.636 101.958 105.56 101.165C105.549 101.053 105.494 101.038 105.467 100.577C105.398 99.4161 105.378 98.1426 105.302 96.9058C105.285 96.6391 105.152 96.9345 105.204 96.2856C105.208 96.242 105.31 96.0227 105.326 95.8032C105.339 95.6513 105.286 95.1829 105.318 94.9879C105.353 94.793 105.408 95.1854 105.463 94.9564C105.52 94.7246 105.48 94.1903 105.603 94.1248ZM126.367 106.019C126.508 105.588 125.774 107.06 126.009 106.737C126.021 106.72 126.36 106.04 126.367 106.019ZM133.06 109.552C133.374 108.893 132.762 109.769 132.514 110.275C132.266 110.78 132.964 109.752 133.06 109.552ZM134.061 109.56C134.29 109.027 133.02 110.984 133.357 110.639C133.376 110.62 134.048 109.591 134.061 109.56ZM105.799 100.934C105.798 100.912 105.751 100.891 105.751 100.913C105.733 101.436 105.821 101.477 105.799 100.934ZM135.084 109.542C135.236 109.263 134.96 109.517 134.773 109.864C134.623 110.143 134.896 109.888 135.084 109.542ZM124.121 103.046C124.13 103.023 124.104 102.988 124.052 103.117C123.884 103.53 123.979 103.433 124.121 103.046ZM136.398 110.351C136.182 110.142 137.107 108.444 137.128 108.706C137.139 108.757 136.774 109.213 136.728 109.386C136.667 109.712 137.248 108.65 137.044 109.27C137.015 109.387 136.414 110.37 136.397 110.354C136.397 110.353 136.398 110.352 136.398 110.351ZM127.207 104.23C127.215 104.21 127.178 104.169 127.167 104.188C126.912 104.644 126.986 104.727 127.207 104.23ZM122.39 101.348C122.401 101.302 122.292 101.226 122.276 101.266C121.982 102.07 122.188 102.223 122.39 101.348ZM130.862 104.826C131.174 104.399 131.264 104.38 130.972 104.974C130.941 104.915 130.894 104.882 130.862 104.826Z" fill="#2F640A"/>
<path d="M128.49 55.2347C128.49 80.5456 105.599 98.6162 75.1809 98.6162C44.7628 98.6162 20.2401 80.5456 20.2401 55.2347C20.2401 29.9239 42.9949 9.40538 73.413 9.40538C103.831 9.40538 128.49 29.9239 128.49 55.2347Z" fill="#AE262D"/>
<path d="M20.5805 12.1764C28.4114 9.94717 41.2513 14.8963 41.2513 14.8963C41.2513 14.8963 24.3719 32.3616 25.4762 45.9024C26.2101 54.901 35.2677 66.8452 35.2677 66.8452C35.2677 66.8452 18.7754 64.2405 11.5366 56.1866C5.76099 49.7606 1.00233 44.7343 1.54163 36.111C2.28713 24.1907 9.09335 15.4465 20.5805 12.1764Z" fill="#FF232F"/>
<path d="M101.291 18.1089C111.627 24.3645 119.786 35.2439 115.435 51.2909C113.954 56.7512 92.8599 58.9577 92.8599 58.9577C92.8599 58.9577 104.896 39.4976 94.323 28.5939C85.3163 19.3058 71.0504 17.7375 62.3977 27.3563C55.0548 35.519 51.7074 51.7829 60.0182 58.9577C73.821 70.8738 99.184 58.9577 99.184 58.9577C99.184 58.9577 93.2827 73.2907 85.2444 77.4014C73.7642 83.2722 62.9953 79.2558 52.8782 70.8738C46.8946 65.9163 44.1863 59.7715 43.3588 49.659C42.4057 38.0117 47.8193 28.077 57.0264 20.8799C69.091 11.4491 88.191 10.1796 101.291 18.1089Z" fill="#FF232F"/>
<path d="M20.5805 12.1764C28.4114 9.94717 41.2513 14.8963 41.2513 14.8963C41.2513 14.8963 24.3719 32.3616 25.4762 45.9024C26.2101 54.901 35.2677 66.8452 35.2677 66.8452C35.2677 66.8452 18.7754 64.2405 11.5366 56.1866C5.76099 49.7606 1.00233 44.7343 1.54163 36.111C2.28713 24.1907 9.09335 15.4465 20.5805 12.1764Z" stroke="#AE262D" stroke-width="3" stroke-linejoin="round"/>
<path d="M101.291 18.1089C111.627 24.3645 119.786 35.2439 115.435 51.2909C113.954 56.7512 92.8599 58.9577 92.8599 58.9577C92.8599 58.9577 104.896 39.4976 94.323 28.5939C85.3163 19.3058 71.0504 17.7375 62.3977 27.3563C55.0548 35.519 51.7074 51.7829 60.0182 58.9577C73.821 70.8738 99.184 58.9577 99.184 58.9577C99.184 58.9577 93.2827 73.2907 85.2444 77.4014C73.7642 83.2722 62.9953 79.2558 52.8782 70.8738C46.8946 65.9163 44.1863 59.7715 43.3588 49.659C42.4057 38.0117 47.8193 28.077 57.0264 20.8799C69.091 11.4491 88.191 10.1796 101.291 18.1089Z" stroke="#AE262D" stroke-width="3" stroke-linejoin="round"/>
<path d="M106.187 11.0373C113.628 17.4991 118.97 32.796 118.97 32.796C118.97 32.796 109.583 21.3502 101.563 16.7489C92.3115 11.4406 85.8429 9.35925 75.181 9.67736C60.8324 10.1055 44.7188 23.2766 44.7188 23.2766C44.7188 23.2766 32.7515 33.612 32.7515 46.3952C32.7515 64.3462 41.7269 75.2256 41.7269 75.2256C41.7269 75.2256 24.8639 69.2419 20.7841 52.9229C18.1812 42.5111 23.4823 28.4443 27.3118 23.2766C34.7313 13.2643 40.2427 10.2825 51.7903 5.5976C60.7686 1.95507 66.8528 1.38179 76.5409 1.51783C88.6995 1.68856 97.006 3.06441 106.187 11.0373Z" fill="#FF232F" stroke="#AE262D" stroke-width="3" stroke-linejoin="round"/>
<path d="M143.721 47.2112C138.801 35.2439 119.514 31.4361 119.514 31.4361C119.514 31.4361 124.821 44.9858 123.322 56.4587C121.544 70.0742 90.9561 83.1131 90.9561 83.1131C90.9561 83.1131 116.538 88.8145 125.226 85.289C133.515 81.9255 136.97 77.2161 140.457 72.2337C143.945 67.2514 147.194 55.6598 143.721 47.2112Z" fill="#FF232F" stroke="#AE262D" stroke-width="3" stroke-linejoin="round"/>
<path d="M67.5703 89.5046C40.1166 85.7693 22.6788 58.9066 22.6788 58.9066C22.6788 58.9066 26.5809 80.0374 36.2954 91.9902C46.01 103.943 56.6605 107.396 64.7955 109.505C76.2353 112.47 93.1545 107.91 97.4517 105.859C107.657 100.987 119.667 82.2449 119.667 82.2449C119.667 82.2449 96.0429 93.3786 67.5703 89.5046Z" fill="#FF232F" stroke="#AE262D" stroke-width="3" stroke-linejoin="round"/>
<path d="M27.1437 30.0371C29.0447 25.5037 32.3258 18.9679 36.9806 17.879C38.3281 17.5638 40.735 17.9538 41.2432 19.9952C42.6719 25.7348 35.4792 31.7153 33.301 37.2911C30.0346 45.6524 33.6064 57.5989 32.8623 59.3103C31.9338 61.4456 29.4362 59.0354 28.1193 57.2483C26.3736 54.8791 25.3609 51.352 24.8172 48.3575C23.9374 43.5121 24.3933 36.5964 27.1437 30.0371Z" fill="#FF9098"/>
<path d="M57.824 20.2451C60.3522 18.7979 64.2785 16.923 67.0712 18.2172C67.8796 18.5918 69.0002 19.7216 68.5718 20.9068C67.3676 24.2388 61.5935 24.3158 58.5672 26.1581C54.029 28.921 51.8337 36.0904 50.8655 36.6263C49.6574 37.295 49.1753 35.1536 49.0963 33.7751C48.9917 31.9476 49.6616 29.8472 50.3949 28.1877C51.5815 25.5023 54.166 22.339 57.824 20.2451Z" fill="#FF9098"/>
<path d="M59.4053 74.3123C55.6505 72.1141 50.2971 68.5155 49.8603 64.6525C49.7339 63.5342 50.3418 61.6813 52.1838 61.5875C57.3626 61.3238 61.7969 67.9454 66.4328 70.5221C73.3847 74.386 84.2303 73.362 85.6449 74.2129C87.4098 75.2746 85.0248 76.8928 83.3156 77.6677C81.0498 78.6948 77.8523 78.964 75.1728 78.9414C70.8369 78.9048 64.8381 77.4929 59.4053 74.3123Z" fill="#FF9098"/>
</svg>
